<?xml version="1.0" encoding="iso-8859-1"?>
<!-- Generator: Adobe Illustrator 19.0.0, SVG Export Plug-In . SVG Version: 6.00 Build 0)  -->
<svg version="1.1" id="Capa_1" xmlns="http://www.w3.org/2000/svg" xmlns:xlink="http://www.w3.org/1999/xlink" x="0px" y="0px"
	 viewBox="0 0 512 512" style="enable-background:new 0 0 512 512;" xml:space="preserve">
<g>
	<g>
		<g>
			<path d="M256,0C114.842,0,0,114.842,0,256s114.842,256,256,256s256-114.842,256-256S397.158,0,256,0z M256,494.933
				C124.25,494.933,17.067,387.75,17.067,256S124.25,17.067,256,17.067S494.933,124.25,494.933,256S387.75,494.933,256,494.933z"/>
			<path d="M355.9,156.1c-3.333-3.333-8.733-3.333-12.067,0L256,243.933L168.167,156.1c-3.333-3.333-8.733-3.333-12.067,0
				c-3.333,3.333-3.333,8.733,0,12.067L243.933,256L156.1,343.833c-3.333,3.333-3.333,8.733,0,12.067
				c1.667,1.667,3.85,2.5,6.033,2.5c2.183,0,4.367-0.833,6.033-2.5L256,268.067l87.833,87.833c1.667,1.667,3.85,2.5,6.033,2.5
				s4.367-0.833,6.033-2.5c3.333-3.333,3.333-8.733,0-12.067L268.067,256l87.833-87.833
				C359.233,164.833,359.233,159.433,355.9,156.1z"/>
		</g>
	</g>
</g>
<g>
</g>
<g>
</g>
<g>
</g>
<g>
</g>
<g>
</g>
<g>
</g>
<g>
</g>
<g>
</g>
<g>
</g>
<g>
</g>
<g>
</g>
<g>
</g>
<g>
</g>
<g>
</g>
<g>
</g>
</svg>
