<?xml version="1.0" encoding="iso-8859-1"?>
<!-- Generator: Adobe Illustrator 19.0.0, SVG Export Plug-In . SVG Version: 6.00 Build 0)  -->
<svg version="1.1" id="Capa_1" xmlns="http://www.w3.org/2000/svg" xmlns:xlink="http://www.w3.org/1999/xlink" x="0px" y="0px"
	 viewBox="0 0 512 512" style="enable-background:new 0 0 512 512;" xml:space="preserve">
<g>
	<g>
		<g>
			<path d="M256,0C114.842,0,0,114.842,0,256s114.842,256,256,256s256-114.842,256-256S397.158,0,256,0z M256,494.933
				C124.25,494.933,17.067,387.75,17.067,256S124.25,17.067,256,17.067S494.933,124.25,494.933,256S387.75,494.933,256,494.933z"/>
			<path d="M386.575,173.092L217.75,337.796l-92.175-94.537c-3.283-3.371-8.692-3.437-12.067-0.15
				c-3.375,3.287-3.442,8.692-0.15,12.067l98.133,100.65c1.575,1.621,3.742,2.546,6,2.575c0.033,0,0.075,0,0.108,0
				c2.225,0,4.367-0.871,5.958-2.425l174.933-170.667c3.375-3.292,3.442-8.696,0.15-12.067
				C395.35,169.862,389.95,169.813,386.575,173.092z"/>
		</g>
	</g>
</g>
<g>
</g>
<g>
</g>
<g>
</g>
<g>
</g>
<g>
</g>
<g>
</g>
<g>
</g>
<g>
</g>
<g>
</g>
<g>
</g>
<g>
</g>
<g>
</g>
<g>
</g>
<g>
</g>
<g>
</g>
</svg>
