<?xml version="1.0" encoding="iso-8859-1"?>
<!-- Generator: Adobe Illustrator 16.0.0, SVG Export Plug-In . SVG Version: 6.00 Build 0)  -->
<!DOCTYPE svg PUBLIC "-//W3C//DTD SVG 1.1//EN" "http://www.w3.org/Graphics/SVG/1.1/DTD/svg11.dtd">
<svg version="1.1" id="Capa_1" xmlns="http://www.w3.org/2000/svg" xmlns:xlink="http://www.w3.org/1999/xlink" x="0px" y="0px"
	 width="592.016px" height="592.016px" viewBox="0 0 592.016 592.016" style="enable-background:new 0 0 592.016 592.016;"
	 xml:space="preserve">
<g>
	<g>
		<g>
			<circle cx="503.439" cy="93.852" r="21.216"/>
			<path d="M503.439,115.568c-11.974,0-21.715-9.742-21.715-21.716s9.741-21.716,21.715-21.716c11.975,0,21.717,9.742,21.717,21.716
				S515.414,115.568,503.439,115.568z M503.439,73.136c-11.422,0-20.715,9.293-20.715,20.716s9.293,20.716,20.715,20.716
				c11.423,0,20.717-9.293,20.717-20.716S514.862,73.136,503.439,73.136z"/>
		</g>
		<g>
			<circle cx="440.201" cy="93.852" r="21.216"/>
			<path d="M440.201,115.568c-11.975,0-21.717-9.742-21.717-21.716s9.742-21.716,21.717-21.716c11.974,0,21.715,9.742,21.715,21.716
				S452.175,115.568,440.201,115.568z M440.201,73.136c-11.423,0-20.717,9.293-20.717,20.716s9.294,20.716,20.717,20.716
				c11.422,0,20.715-9.293,20.715-20.716S451.623,73.136,440.201,73.136z"/>
		</g>
		<g>
			<circle cx="376.961" cy="93.852" r="21.216"/>
			<path d="M376.961,115.568c-11.975,0-21.717-9.742-21.717-21.716s9.742-21.716,21.717-21.716s21.717,9.742,21.717,21.716
				S388.936,115.568,376.961,115.568z M376.961,73.136c-11.423,0-20.717,9.293-20.717,20.716s9.294,20.716,20.717,20.716
				s20.717-9.293,20.717-20.716S388.384,73.136,376.961,73.136z"/>
		</g>
		<g>
			<path d="M58.64,582.997h474.737c32.057,0,58.139-26.082,58.139-58.141V67.159c0-32.059-26.082-58.14-58.139-58.14H58.64
				C26.582,9.019,0.5,35.1,0.5,67.159v457.698C0.5,556.915,26.582,582.997,58.64,582.997z M548.676,524.856
				c0,8.449-6.85,15.299-15.299,15.299H58.64c-8.45,0-15.3-6.85-15.3-15.299V175.482h505.336V524.856L548.676,524.856z
				 M43.34,67.159c0-8.45,6.85-15.3,15.3-15.3h474.737c8.449,0,15.299,6.85,15.299,15.3v65.484H43.34V67.159z"/>
			<path d="M533.377,583.497H58.64C26.306,583.497,0,557.191,0,524.856V67.159c0-32.334,26.306-58.64,58.64-58.64h474.737
				c32.333,0,58.639,26.306,58.639,58.64v457.698C592.016,557.191,565.71,583.497,533.377,583.497z M58.64,9.519
				C26.857,9.519,1,35.376,1,67.159v457.698c0,31.783,25.857,57.641,57.64,57.641h474.737c31.782,0,57.639-25.857,57.639-57.641
				V67.159c0-31.783-25.856-57.64-57.639-57.64H58.64z M533.377,540.655H58.64c-8.712,0-15.8-7.087-15.8-15.799V174.982h506.336
				v349.874C549.176,533.568,542.089,540.655,533.377,540.655z M43.84,175.982v348.874c0,8.16,6.639,14.799,14.8,14.799h474.737
				c8.16,0,14.799-6.639,14.799-14.799V175.982H43.84z M549.176,133.143H42.84V67.159c0-8.712,7.088-15.8,15.8-15.8h474.737
				c8.712,0,15.799,7.088,15.799,15.8V133.143z M43.84,132.143h504.336V67.159c0-8.161-6.639-14.8-14.799-14.8H58.64
				c-8.161,0-14.8,6.64-14.8,14.8V132.143z"/>
		</g>
		<g>
			<path d="M199.91,446.249c4.183,4.182,9.665,6.273,15.146,6.273c5.482,0,10.964-2.092,15.146-6.273l65.805-65.807l65.806,65.807
				c4.182,4.182,9.664,6.273,15.146,6.273s10.963-2.092,15.146-6.273c8.365-8.365,8.365-21.928,0-30.293l-65.807-65.807
				l65.805-65.806c8.365-8.365,8.365-21.927,0-30.292c-8.363-8.365-21.926-8.365-30.291,0l-65.806,65.807l-65.806-65.807
				c-8.365-8.365-21.928-8.366-30.292,0c-8.365,8.365-8.365,21.927,0,30.292l65.806,65.806l-65.805,65.807
				C191.545,424.321,191.545,437.884,199.91,446.249z"/>
			<path d="M376.961,453.022c-5.855,0-11.36-2.28-15.5-6.42l-65.453-65.453l-65.452,65.453c-4.141,4.14-9.646,6.42-15.5,6.42
				s-11.359-2.28-15.5-6.42c-8.547-8.547-8.547-22.453,0-31l65.452-65.453l-65.452-65.452c-8.546-8.546-8.546-22.453,0-31
				c4.14-4.14,9.645-6.42,15.5-6.42s11.36,2.28,15.5,6.42l65.453,65.454l65.453-65.454c4.141-4.14,9.645-6.42,15.5-6.42
				c5.854,0,11.358,2.28,15.498,6.42c4.141,4.14,6.421,9.645,6.421,15.5c0,5.854-2.28,11.359-6.421,15.5l-65.451,65.452
				l65.453,65.453c8.547,8.547,8.547,22.453,0,31C388.319,450.742,382.814,453.022,376.961,453.022z M296.008,379.735l66.16,66.16
				c3.951,3.951,9.205,6.127,14.793,6.127c5.587,0,10.84-2.176,14.793-6.127c8.157-8.157,8.157-21.429,0-29.586l-66.16-66.16
				l66.158-66.159c3.951-3.951,6.128-9.205,6.128-14.792c0-5.588-2.177-10.842-6.128-14.793c-3.95-3.951-9.203-6.127-14.791-6.127
				s-10.842,2.176-14.793,6.127l-66.16,66.161l-66.16-66.161c-3.952-3.952-9.205-6.127-14.793-6.127s-10.841,2.176-14.792,6.127
				c-8.156,8.157-8.156,21.429,0,29.585l66.159,66.159l-66.159,66.16c-8.157,8.157-8.157,21.429,0,29.586
				c3.952,3.951,9.206,6.127,14.793,6.127s10.841-2.176,14.793-6.127L296.008,379.735z"/>
		</g>
	</g>
</g>
<g>
</g>
<g>
</g>
<g>
</g>
<g>
</g>
<g>
</g>
<g>
</g>
<g>
</g>
<g>
</g>
<g>
</g>
<g>
</g>
<g>
</g>
<g>
</g>
<g>
</g>
<g>
</g>
<g>
</g>
</svg>
