<?xml version="1.0" encoding="iso-8859-1"?>
<!-- Generator: Adobe Illustrator 19.0.0, SVG Export Plug-In . SVG Version: 6.00 Build 0)  -->
<svg version="1.1" id="Layer_1" xmlns="http://www.w3.org/2000/svg" xmlns:xlink="http://www.w3.org/1999/xlink" x="0px" y="0px"
	 viewBox="0 0 512 512" style="enable-background:new 0 0 512 512;" xml:space="preserve">
<g>
	<g>
		<g>
			<path d="M444.875,109.792L338.208,3.125c-2-2-4.708-3.125-7.542-3.125h-224C83.135,0,64,19.135,64,42.667v426.667
				C64,492.865,83.135,512,106.667,512h298.667C428.865,512,448,492.865,448,469.333v-352
				C448,114.5,446.875,111.792,444.875,109.792z M341.333,36.417l70.25,70.25h-48.917c-11.76,0-21.333-9.573-21.333-21.333V36.417z
				 M426.667,469.333c0,11.76-9.573,21.333-21.333,21.333H106.667c-11.76,0-21.333-9.573-21.333-21.333V42.667
				c0-11.76,9.573-21.333,21.333-21.333H320v64C320,108.865,339.135,128,362.667,128h64V469.333z"/>
			<path d="M352,213.333H160c-5.896,0-10.667,4.771-10.667,10.667s4.771,10.667,10.667,10.667h192
				c5.896,0,10.667-4.771,10.667-10.667S357.896,213.333,352,213.333z"/>
			<path d="M352,277.333H160c-5.896,0-10.667,4.771-10.667,10.667s4.771,10.667,10.667,10.667h192
				c5.896,0,10.667-4.771,10.667-10.667S357.896,277.333,352,277.333z"/>
			<path d="M352,341.333H160c-5.896,0-10.667,4.771-10.667,10.667c0,5.896,4.771,10.667,10.667,10.667h192
				c5.896,0,10.667-4.771,10.667-10.667C362.667,346.104,357.896,341.333,352,341.333z"/>
			<path d="M266.667,405.333H160c-5.896,0-10.667,4.771-10.667,10.667c0,5.896,4.771,10.667,10.667,10.667h106.667
				c5.896,0,10.667-4.771,10.667-10.667C277.333,410.104,272.563,405.333,266.667,405.333z"/>
		</g>
	</g>
</g>
<g>
</g>
<g>
</g>
<g>
</g>
<g>
</g>
<g>
</g>
<g>
</g>
<g>
</g>
<g>
</g>
<g>
</g>
<g>
</g>
<g>
</g>
<g>
</g>
<g>
</g>
<g>
</g>
<g>
</g>
</svg>
