<?xml version="1.0" encoding="iso-8859-1"?>
<!-- Generator: Adobe Illustrator 19.0.0, SVG Export Plug-In . SVG Version: 6.00 Build 0)  -->
<svg version="1.1" id="Capa_1" xmlns="http://www.w3.org/2000/svg" xmlns:xlink="http://www.w3.org/1999/xlink" x="0px" y="0px"
	 viewBox="0 0 511.988 511.988" style="enable-background:new 0 0 511.988 511.988;" xml:space="preserve">
<g>
	<g>
		<g>
			<path d="M418.133,281.423c-4.713,0-8.533,3.821-8.533,8.533v162.304H17.067V59.727H409.6v106.838
				c0,4.713,3.821,8.533,8.533,8.533s8.533-3.821,8.533-8.533V59.727c0-9.413-7.654-17.067-17.067-17.067H17.067
				C7.654,42.661,0,50.315,0,59.727v392.533c0,9.413,7.654,17.067,17.067,17.067H409.6c9.413,0,17.067-7.654,17.067-17.067V289.956
				C426.667,285.244,422.846,281.423,418.133,281.423z"/>
			<path d="M504.212,142.169c-10.042-10.05-27.563-10.05-37.604,0L275.566,333.206c-1.304,1.304-2.15,2.992-2.412,4.817l-4.3,29.837
				c-0.383,2.662,0.508,5.35,2.412,7.25c1.612,1.612,3.788,2.5,6.033,2.5c0.404,0,0.813-0.029,1.217-0.087l29.837-4.3
				c1.825-0.263,3.513-1.108,4.817-2.412l191.046-191.038C514.579,169.402,514.579,152.531,504.212,142.169z M492.146,167.706
				L303.113,356.736l-15.737,2.267l2.267-15.737l189.037-189.029c3.596-3.604,9.871-3.596,13.467,0
				C495.858,157.948,495.858,163.994,492.146,167.706z"/>
		</g>
	</g>
</g>
<g>
</g>
<g>
</g>
<g>
</g>
<g>
</g>
<g>
</g>
<g>
</g>
<g>
</g>
<g>
</g>
<g>
</g>
<g>
</g>
<g>
</g>
<g>
</g>
<g>
</g>
<g>
</g>
<g>
</g>
</svg>
