<?xml version="1.0" encoding="iso-8859-1"?>
<!-- Generator: Adobe Illustrator 19.0.0, SVG Export Plug-In . SVG Version: 6.00 Build 0)  -->
<svg version="1.1" id="Layer_1" xmlns="http://www.w3.org/2000/svg" xmlns:xlink="http://www.w3.org/1999/xlink" x="0px" y="0px"
	 viewBox="0 0 512 512" style="enable-background:new 0 0 512 512;" xml:space="preserve">
<g>
	<g>
		<path d="M443.536,141.584L312.208,4.912C309.2,1.776,305.024,0,300.672,0H80c-8.832,0-16,7.168-16,16v480c0,8.832,7.168,16,16,16
			h352c8.832,0,16-7.168,16-16V152.672C448,148.544,446.4,144.56,443.536,141.584z M304,42.56L401.488,144H304V42.56z M416,480H96
			V32h176v128c0,8.832,7.168,16,16,16h128V480z"/>
	</g>
</g>
<g>
</g>
<g>
</g>
<g>
</g>
<g>
</g>
<g>
</g>
<g>
</g>
<g>
</g>
<g>
</g>
<g>
</g>
<g>
</g>
<g>
</g>
<g>
</g>
<g>
</g>
<g>
</g>
<g>
</g>
</svg>
