<?xml version="1.0" encoding="iso-8859-1"?>
<!-- Generator: Adobe Illustrator 19.0.0, SVG Export Plug-In . SVG Version: 6.00 Build 0)  -->
<svg version="1.1" id="Layer_1" xmlns="http://www.w3.org/2000/svg" xmlns:xlink="http://www.w3.org/1999/xlink" x="0px" y="0px"
	 viewBox="0 0 512 512" style="enable-background:new 0 0 512 512;" xml:space="preserve">
<g>
	<g>
		<g>
			<path d="M443.536,141.584L312.208,4.912C309.184,1.776,305.024,0,300.672,0H80c-8.848,0-16,7.168-16,16v480
				c0,8.832,7.152,16,16,16h352c8.848,0,16-7.168,16-16V152.672C448,148.544,446.4,144.56,443.536,141.584z M304,42.56L401.488,144
				H304V42.56z M416,480H96V32h176v128c0,8.832,7.152,16,16,16h128V480z"/>
			<path d="M189.472,310.784c-3.2-3.008-6.896-4.976-10.992-5.824c-3.216-0.64-7.056-0.96-11.824-0.96l-14.352,0.064L139.392,304
				c-2.56-0.48-4.192,0.816-5.68,2.336c-1.52,1.504-2.352,3.536-2.352,5.664c0,9.248-0.192,19.856-0.576,31.792l-1.216,34.992
				c-0.416,11.184-0.944,20.72-1.536,28.624c-0.16,2.288,0.656,4.528,2.24,6.16c1.568,1.632,3.888,2.656,6.064,2.432l2.704-0.064
				l2.72,0.064c0.112,0,0.224,0,0.336,0c2.08,0,4.08-0.8,5.568-2.256c1.584-1.52,2.448-3.632,2.432-5.824l-0.08-7.312
				c0-3.264,0.272-13.744,0.768-31.456c11.04,1.712,20.048,0.384,27.904-3.36c6.048-2.864,10.928-7.264,14.48-13.072
				c3.504-5.744,5.28-12.32,5.28-19.536c0-4.208-0.736-8.272-2.176-12.032C194.768,317.104,192.48,313.632,189.472,310.784z
				 M176.224,340.48c-0.896,2.112-2.064,3.808-3.6,5.168c-1.456,1.312-3.232,2.24-5.44,2.832c-4.736,1.264-9.92,1.456-15.792,0.432
				c0.32-9.472,0.608-17.648,0.912-24.512l12.752,0.016c5.888,0,7.808,0.56,8.128,0.672c0.976,0.336,1.68,0.736,2.192,1.264
				c0.592,0.608,1.088,1.504,1.488,2.576c0.496,1.456,0.752,2.912,0.752,4.448C177.6,335.936,177.136,338.256,176.224,340.48z"/>
			<path d="M251.52,304l-17.664,0.064L219.536,304c-1.952-0.48-4.176,0.816-5.68,2.336c-1.52,1.504-2.352,3.552-2.352,5.664
				c0,3.12-0.016,5.664-0.064,7.552l-1.712,54.592l-1.856,33.408c-0.128,2.208,0.672,4.352,2.192,5.968
				c1.536,1.6,4.192,2.48,5.84,2.48l14.016-0.064L243.632,416c0.016,0,0.032,0,0.048,0c8.048,0,15.632-0.944,22.512-2.816
				c7.536-2.032,14.336-6,20.272-11.776c5.808-5.68,10.24-12.736,13.136-20.944c2.832-7.936,4.272-16.288,4.272-24.8
				c0-7.136-0.944-13.952-2.8-20.208c-1.936-6.64-5.312-12.672-10.064-18c-4.944-5.52-10.752-9.232-17.248-11.04
				C267.952,304.784,260.704,304,251.52,304z M279.04,336.096c1.168,2.16,2.048,4.464,2.608,6.96
				c0.896,3.776,1.344,7.792,1.344,11.968c0,4.4-0.48,8.768-1.44,13.008c-0.896,4.048-2.288,7.792-4.128,11.088
				c-1.808,3.248-4.192,6.24-7.008,8.88c-2.656,2.448-5.264,4.128-7.712,4.96c-3.12,1.024-6.72,1.76-10.64,2.16
				c-7.136,0.72-12.624,0.72-22.384,0.592l2.768-71.456l20.144-0.016c3.984,0.032,7.504,0.272,10.544,0.704
				c2.848,0.368,5.12,0.944,6.784,1.696c1.6,0.72,3.152,1.856,4.688,3.36C276.256,331.6,277.728,333.632,279.04,336.096z"/>
			<path d="M324.784,416c0.112,0,0.24,0,0.336,0l2.496-0.064l2.528,0.064c2.176,0.24,4.32-0.704,5.872-2.224
				c1.584-1.504,2.464-3.6,2.464-5.776c0-9.328,0.192-22.176,0.592-38.528c6.096-0.112,10.288-0.176,20.448,0.048l11.52,0.144
				c0.032,0,0.064,0,0.096,0c4.336,0,7.888-3.456,8-7.792c0.032-1.568,0.128-2.928,0.272-4.064c0.304-2.32-0.432-4.64-2-6.368
				c-1.568-1.728-3.248-2.688-6.144-2.64c-5.664,0.144-14.32,0.208-25.824,0.208l-5.68-0.08l0.704-24.64l22.672,0.08
				c4.368,0.048,8.336,0.24,11.808,0.592c2.24,0.16,4.48-0.528,6.176-2.032c1.664-1.52,2.624-3.664,2.624-5.936
				c0-1.248,0.08-2.672,0.24-4.256c0.208-2.256-0.544-4.48-2.064-6.128c-1.52-1.664-3.392-3.008-5.936-2.608l-22.512,0.064
				L327.648,304c-1.68-0.48-4.176,0.816-5.68,2.336c-1.52,1.504-2.352,3.536-2.352,5.664l-1.648,71.152l-1.152,24.48
				c-0.112,2.24,0.736,4.432,2.32,6.016C320.624,415.152,322.656,416,324.784,416z"/>
		</g>
	</g>
</g>
<g>
</g>
<g>
</g>
<g>
</g>
<g>
</g>
<g>
</g>
<g>
</g>
<g>
</g>
<g>
</g>
<g>
</g>
<g>
</g>
<g>
</g>
<g>
</g>
<g>
</g>
<g>
</g>
<g>
</g>
</svg>
