<?xml version="1.0" encoding="iso-8859-1"?>
<!-- Generator: Adobe Illustrator 19.0.0, SVG Export Plug-In . SVG Version: 6.00 Build 0)  -->
<svg version="1.1" id="Layer_1" xmlns="http://www.w3.org/2000/svg" xmlns:xlink="http://www.w3.org/1999/xlink" x="0px" y="0px"
	 viewBox="0 0 512 512" style="enable-background:new 0 0 512 512;" xml:space="preserve">
<g>
	<g>
		<g>
			<path d="M443.536,141.584L312.208,4.912C309.184,1.776,305.024,0,300.672,0H80c-8.848,0-16,7.168-16,16v480
				c0,8.832,7.152,16,16,16h352c8.848,0,16-7.168,16-16V152.672C448,148.544,446.4,144.56,443.536,141.584z M304,42.56L401.488,144
				H304V42.56z M416,480H96V32h176v128c0,8.832,7.152,16,16,16h128V480z"/>
			<path d="M314.16,324.24l-33.344,31.536l-72.384-78.608c-3.52-3.824-8.704-5.68-13.776-5.04c-5.12,0.656-9.648,3.744-12.08,8.32
				l-68.656,128c-2.672,4.96-2.528,10.96,0.352,15.776C117.152,429.04,122.368,432,128,432h256c6.032,0,11.552-3.392,14.288-8.768
				c2.72-5.376,2.192-11.84-1.392-16.688L338.048,326.4c-2.704-3.696-6.896-6.048-11.456-6.464
				C322.016,319.584,317.504,321.088,314.16,324.24z M352.4,400H154.736l45.392-84.624l68.144,74
				c2.896,3.152,6.944,5.008,11.216,5.152c3.872,0.176,8.416-1.424,11.552-4.368l31.952-30.224L352.4,400z"/>
			<path d="M240,256c0,26.464,21.536,48,48,48s48-21.536,48-48s-21.536-48-48-48S240,229.536,240,256z M304,256
				c0,8.816-7.168,16-16,16c-8.832,0-16-7.184-16-16c0-8.816,7.168-16,16-16C296.832,240,304,247.184,304,256z"/>
		</g>
	</g>
</g>
<g>
</g>
<g>
</g>
<g>
</g>
<g>
</g>
<g>
</g>
<g>
</g>
<g>
</g>
<g>
</g>
<g>
</g>
<g>
</g>
<g>
</g>
<g>
</g>
<g>
</g>
<g>
</g>
<g>
</g>
</svg>
