<?xml version="1.0" encoding="iso-8859-1"?>
<!-- Generator: Adobe Illustrator 19.0.0, SVG Export Plug-In . SVG Version: 6.00 Build 0)  -->
<svg version="1.1" id="Layer_1" xmlns="http://www.w3.org/2000/svg" xmlns:xlink="http://www.w3.org/1999/xlink" x="0px" y="0px"
	 viewBox="0 0 512 512" style="enable-background:new 0 0 512 512;" xml:space="preserve">
<g>
	<g>
		<g>
			<path d="M384,224.944v-72.272c0-4.128-1.6-8.112-4.464-11.088L248.208,4.912C245.184,1.776,241.024,0,236.672,0H16
				C7.152,0,0,7.168,0,16v480c0,8.832,7.152,16,16,16h352c79.408,0,144-64.608,144-144C512,294.016,455.888,232.928,384,224.944z
				 M240,42.56L337.488,144H240V42.56z M32,480V32h176v128c0,8.832,7.152,16,16,16h128v48.944c-71.888,8-128,69.072-128,143.056
				c0,45.216,20.992,85.584,53.696,112H32z M368,480c-61.744,0-112-50.24-112-112s50.256-112,112-112s112,50.24,112,112
				S429.744,480,368,480z"/>
			<path d="M441.6,339.2l-64-48c-0.256-0.192-0.56-0.224-0.816-0.384c-0.56-0.368-1.104-0.688-1.696-0.976
				c-0.672-0.336-1.36-0.576-2.096-0.832c-0.656-0.224-1.28-0.448-1.952-0.576s-1.312-0.16-1.984-0.208
				C368.688,288.192,368.384,288,368,288c-0.384,0-0.72,0.192-1.104,0.224c-0.64,0.048-1.264,0.08-1.904,0.192
				c-0.704,0.128-1.344,0.368-2.032,0.592c-0.72,0.24-1.408,0.496-2.08,0.832c-0.576,0.288-1.12,0.592-1.664,0.96
				c-0.256,0.176-0.576,0.208-0.832,0.4l-64,48c-7.072,5.296-8.512,15.328-3.2,22.4c3.136,4.192,7.936,6.4,12.816,6.4
				c3.344,0,6.704-1.04,9.584-3.2L352,336v96c0,8.832,7.152,16,16,16c8.848,0,16-7.168,16-16v-96l38.4,28.8
				c2.88,2.16,6.24,3.2,9.584,3.2c4.88,0,9.664-2.208,12.816-6.4C450.112,354.528,448.672,344.496,441.6,339.2z"/>
		</g>
	</g>
</g>
<g>
</g>
<g>
</g>
<g>
</g>
<g>
</g>
<g>
</g>
<g>
</g>
<g>
</g>
<g>
</g>
<g>
</g>
<g>
</g>
<g>
</g>
<g>
</g>
<g>
</g>
<g>
</g>
<g>
</g>
</svg>
