<?xml version="1.0" encoding="iso-8859-1"?>
<!-- Generator: Adobe Illustrator 19.0.0, SVG Export Plug-In . SVG Version: 6.00 Build 0)  -->
<svg version="1.1" id="Layer_1" xmlns="http://www.w3.org/2000/svg" xmlns:xlink="http://www.w3.org/1999/xlink" x="0px" y="0px"
	 viewBox="0 0 512 512" style="enable-background:new 0 0 512 512;" xml:space="preserve">
<g>
	<g>
		<g>
			<path d="M443.536,141.584L312.208,4.912C309.184,1.776,305.024,0,300.672,0H80c-8.848,0-16,7.168-16,16v480
				c0,8.832,7.152,16,16,16h352c8.848,0,16-7.168,16-16V152.672C448,148.544,446.4,144.56,443.536,141.584z M304,42.56L401.488,144
				H304V42.56z M416,480H96V32h176v128c0,8.832,7.152,16,16,16h128V480z"/>
			<path d="M184.784,312.288c-2.992-3.024-6.432-5.008-10.352-5.888c-2.944-0.656-6.496-0.96-10.912-0.96l-12.896,0.064
				l-11.568-0.064c-0.016,0-0.032,0-0.048,0c-2.112,0-4.144,0.832-5.648,2.336c-1.52,1.504-2.352,3.536-2.352,5.664
				c0,8.976-0.176,19.28-0.512,30.848l-1.104,33.968c-0.352,10.848-0.832,20.096-1.376,27.744c-0.16,2.272,0.656,4.496,2.24,6.128
				c1.6,1.632,4.24,2.64,6.064,2.416l2.416-0.048l2.432,0.048c0.112,0,0.208,0,0.32,0c2.08,0,4.08-0.816,5.584-2.272
				c1.568-1.52,2.432-3.632,2.416-5.824l-0.08-7.072c0-3.136,0.24-13.2,0.672-30.144c9.744,1.44,17.776,0.096,24.848-3.552
				c5.584-2.864,10.048-7.216,13.232-12.88c3.136-5.52,4.736-11.872,4.736-18.864c0-4.064-0.656-7.968-1.936-11.568
				C189.584,318.464,187.504,315.056,184.784,312.288z M171.264,341.184c-0.784,2.016-1.792,3.632-3.12,4.912
				c-1.232,1.184-2.704,2-4.48,2.528c-3.968,1.152-8.24,1.344-13.008,0.512c0.272-9.024,0.528-16.816,0.8-23.408h10.624
				c5.28,0,6.832,0.544,6.848,0.544c0.704,0.272,1.248,0.608,1.632,1.024c0.496,0.544,0.944,1.408,1.296,2.496
				c0.464,1.424,0.704,2.848,0.704,4.352C172.544,336.656,172.128,338.944,171.264,341.184z"/>
			<path d="M276.944,305.44l-2.128,0.048l-2.08-0.048c-2.192-0.272-4.256,0.688-5.808,2.176c-1.552,1.488-2.464,3.536-2.496,5.68
				l-1.792,60.976l-25.04-42.464c-4.032-6.672-6.64-11.136-7.904-13.36c-1.248-2.24-2.832-5.152-4.72-8.752
				c-1.44-2.736-4.32-4.32-7.408-4.272l-3.232,0.048l-3.152-0.048c-2.528-0.208-4.272,0.688-5.824,2.176
				c-1.584,1.472-2.48,3.52-2.512,5.68l-1.776,65.984l-1.344,26.88c-0.128,2.24,0.72,4.432,2.304,6.016
				c1.584,1.6,3.776,2.512,6,2.368l2.144-0.048l2.128,0.048c0.112,0,0.208,0,0.32,0c2.048,0,4.016-0.784,5.504-2.192
				c1.568-1.472,2.464-3.52,2.496-5.68l1.712-60.576l37.808,64.416c1.472,2.56,4.272,4.208,7.168,4.016l3.232-0.064l3.296,0.064
				c2.016-0.16,4.208-0.736,5.76-2.208c1.536-1.472,2.432-3.52,2.464-5.648l2.096-71.424l1.104-21.424
				c0.128-2.24-0.72-4.432-2.304-6.032C281.376,306.176,279.216,305.248,276.944,305.44z"/>
			<path d="M308.944,401.792c4.64,4.784,10.336,8.416,16.864,10.784c6.224,2.272,12.864,3.424,19.728,3.424
				c3.744,0,8.288-0.4,13.6-1.232c5.136-0.784,10.992-2.096,17.408-3.92c3.376-0.96,5.712-4,5.808-7.504L384,355.632
				c0.112-2.192-0.688-4.336-2.224-5.92c-1.504-1.568-3.6-2.464-5.76-2.464c-0.016,0-0.032,0-0.064,0l-10.112,0.064l-15.6-0.064
				c0,0-0.016,0-0.032,0c-2.112,0-4.16,1.2-5.664,2.704c-1.52,1.504-2.352,3.92-2.352,6.048c0,1.04-0.064,2.144-0.144,3.344
				c-0.192,2.304,0.64,4.56,2.256,6.208c1.6,1.648,3.664,2.576,6.16,2.4l12.576-0.528l-0.944,25.92
				c-0.064,0.016-0.112,0.032-0.176,0.048c-1.264,0.368-2.88,0.736-4.88,1.104c-2.08,0.4-4.16,0.704-6.224,0.944
				c-7.52,0.832-13.072,0.112-18.24-1.84c-3.664-1.392-6.672-3.312-9.168-5.872c-2.384-2.432-4.24-5.712-5.504-9.744
				c-1.408-4.496-2.112-9.472-2.112-14.752c0-5.696,0.832-11.28,2.48-16.64c1.536-5.04,3.76-9.296,6.608-12.608
				c2.784-3.248,6.08-5.6,10.08-7.216c6.816-2.752,13.808-3.296,22.784-1.552c3.456,0.688,7.776,2.032,12.864,3.984
				c2.592,1.024,5.584,0.592,7.776-1.136c2.208-1.712,3.36-4.464,3.04-7.248c-0.208-1.664-0.352-3.504-0.4-5.568
				c-0.096-3.552-2.528-6.608-5.968-7.52c-5.376-1.424-10.048-2.384-14.016-2.928c-11.68-1.584-22.736-0.88-32.448,2.672
				c-6.608,2.416-12.528,6.368-17.568,11.728c-4.944,5.264-8.832,11.872-11.568,19.632c-2.672,7.584-4.032,15.664-4.032,24.064
				c0,7.328,1.024,14.384,3.072,21.008C300.736,390.976,304.24,397.008,308.944,401.792z"/>
		</g>
	</g>
</g>
<g>
</g>
<g>
</g>
<g>
</g>
<g>
</g>
<g>
</g>
<g>
</g>
<g>
</g>
<g>
</g>
<g>
</g>
<g>
</g>
<g>
</g>
<g>
</g>
<g>
</g>
<g>
</g>
<g>
</g>
</svg>
