<?xml version="1.0" encoding="iso-8859-1"?>
<!-- Generator: Adobe Illustrator 19.0.0, SVG Export Plug-In . SVG Version: 6.00 Build 0)  -->
<svg version="1.1" id="Layer_1" xmlns="http://www.w3.org/2000/svg" xmlns:xlink="http://www.w3.org/1999/xlink" x="0px" y="0px"
	 viewBox="0 0 512 512" style="enable-background:new 0 0 512 512;" xml:space="preserve">
<g>
	<g>
		<g>
			<path d="M384,224.944v-72.272c0-4.128-1.6-8.112-4.464-11.088L248.208,4.912C245.2,1.776,241.024,0,236.672,0H16
				C7.168,0,0,7.168,0,16v480c0,8.832,7.168,16,16,16h352c79.392,0,144-64.608,144-144C512,294.016,455.888,232.944,384,224.944z
				 M240,42.56L337.488,144H240V42.56z M32,480V32h176v128c0,8.832,7.168,16,16,16h128v48.944c-71.888,8-128,69.072-128,143.056
				c0,45.216,20.992,85.584,53.696,112H32z M368,480c-61.76,0-112-50.24-112-112s50.24-112,112-112s112,50.24,112,112
				S429.76,480,368,480z"/>
			<path d="M444.8,374.4c-5.28-7.056-15.296-8.512-22.4-3.2L384,400v-96c0-8.832-7.168-16-16-16c-8.832,0-16,7.168-16,16v96
				l-38.4-28.8c-7.072-5.328-17.088-3.856-22.4,3.2c-5.312,7.072-3.872,17.104,3.2,22.4l64,48c0.56,0.416,1.2,0.608,1.792,0.928
				c0.4,0.224,0.752,0.544,1.168,0.736c0.32,0.144,0.656,0.272,0.992,0.4c1.824,0.688,3.728,1.136,5.632,1.136c0,0,0,0,0.016,0
				s0,0,0.016,0c1.904,0,3.808-0.448,5.632-1.136c0.336-0.128,0.656-0.24,0.992-0.4c0.416-0.192,0.752-0.496,1.168-0.736
				c0.592-0.336,1.232-0.512,1.792-0.928l64-48C448.672,391.504,450.096,381.472,444.8,374.4z"/>
		</g>
	</g>
</g>
<g>
</g>
<g>
</g>
<g>
</g>
<g>
</g>
<g>
</g>
<g>
</g>
<g>
</g>
<g>
</g>
<g>
</g>
<g>
</g>
<g>
</g>
<g>
</g>
<g>
</g>
<g>
</g>
<g>
</g>
</svg>
