<?xml version="1.0" encoding="iso-8859-1"?>
<!-- Generator: Adobe Illustrator 19.0.0, SVG Export Plug-In . SVG Version: 6.00 Build 0)  -->
<svg version="1.1" id="Layer_1" xmlns="http://www.w3.org/2000/svg" xmlns:xlink="http://www.w3.org/1999/xlink" x="0px" y="0px"
	 viewBox="0 0 512 512" style="enable-background:new 0 0 512 512;" xml:space="preserve">
<g>
	<g>
		<g>
			<path d="M362.667,281.882V96c0-2.833-1.125-5.542-3.125-7.542L274.208,3.125c-2-2-4.708-3.125-7.542-3.125h-160
				C83.135,0,64,19.135,64,42.667v320c0,23.531,19.135,42.667,42.667,42.667h107.207C219.288,465.044,269.569,512,330.667,512
				C395.365,512,448,459.365,448,394.667C448,341.073,411.84,295.858,362.667,281.882z M277.333,36.417l48.917,48.917h-27.583
				c-11.76,0-21.333-9.573-21.333-21.333V36.417z M106.667,384c-11.76,0-21.333-9.573-21.333-21.333v-320
				c0-11.76,9.573-21.333,21.333-21.333H256V64c0,23.531,19.135,42.667,42.667,42.667h42.667v171.207
				c-3.518-0.319-7.066-0.54-10.667-0.54c-61.098,0-111.379,46.956-116.793,106.667H106.667z M330.667,490.667
				c-52.938,0-96-43.063-96-96s43.063-96,96-96s96,43.063,96,96S383.604,490.667,330.667,490.667z"/>
			<path d="M304.583,382.208c4.906-3.271,6.229-9.885,2.958-14.792c-3.271-4.917-9.885-6.229-14.792-2.958l-9.906,6.604
				c8.729-17.604,26.885-29.729,47.823-29.729c17.75,0,34.281,8.792,44.24,23.521c3.281,4.885,9.927,6.188,14.802,2.865
				c4.885-3.292,6.167-9.927,2.865-14.802C378.656,332.302,355.51,320,330.667,320C289.5,320,256,353.5,256,394.667
				c0,3.938,2.167,7.552,5.635,9.406c1.573,0.844,3.302,1.26,5.031,1.26c2.073,0,4.135-0.604,5.917-1.792L304.583,382.208z"/>
			<path d="M399.698,385.26c-3.458-1.854-7.677-1.646-10.948,0.531l-32,21.333c-4.906,3.271-6.229,9.885-2.958,14.792
				c3.25,4.885,9.865,6.198,14.792,2.958l9.906-6.604C369.76,435.875,351.604,448,330.667,448c-17.75,0-34.281-8.792-44.24-23.521
				c-3.281-4.875-9.927-6.188-14.802-2.865c-4.885,3.292-6.167,9.927-2.865,14.802c13.917,20.615,37.063,32.917,61.906,32.917
				c41.167,0,74.667-33.5,74.667-74.667C405.333,390.729,403.167,387.115,399.698,385.26z"/>
		</g>
	</g>
</g>
<g>
</g>
<g>
</g>
<g>
</g>
<g>
</g>
<g>
</g>
<g>
</g>
<g>
</g>
<g>
</g>
<g>
</g>
<g>
</g>
<g>
</g>
<g>
</g>
<g>
</g>
<g>
</g>
<g>
</g>
</svg>
