<?xml version="1.0" encoding="iso-8859-1"?>
<!-- Generator: Adobe Illustrator 19.0.0, SVG Export Plug-In . SVG Version: 6.00 Build 0)  -->
<svg version="1.1" id="Layer_1" xmlns="http://www.w3.org/2000/svg" xmlns:xlink="http://www.w3.org/1999/xlink" x="0px" y="0px"
	 viewBox="0 0 512 512" style="enable-background:new 0 0 512 512;" xml:space="preserve">
<g>
	<g>
		<g>
			<path d="M341.333,330.667V352c0,5.896,4.771,10.667,10.667,10.667c5.896,0,10.667-4.771,10.667-10.667v-21.333
				c0-5.896-4.771-10.667-10.667-10.667C346.104,320,341.333,324.771,341.333,330.667z"/>
			<path d="M444.875,339.125l-37.333-37.333c-2-2-4.708-3.125-7.542-3.125h-37.333V96c0-2.833-1.125-5.542-3.125-7.542
				L274.208,3.125c-2-2-4.708-3.125-7.542-3.125h-160C83.146,0,64,19.135,64,42.667v320c0,23.531,19.146,42.667,42.667,42.667h128
				v80c0,14.708,11.958,26.667,26.667,26.667h160C436.042,512,448,500.042,448,485.333V346.667
				C448,343.833,446.875,341.125,444.875,339.125z M384,320v37.688c0,2.938-2.396,5.333-5.333,5.333H304
				c-2.938,0-5.333-2.396-5.333-5.333V320H352H384z M277.333,36.417l48.917,48.917h-27.583c-11.771,0-21.333-9.573-21.333-21.333
				V36.417z M234.667,325.333V384h-128c-11.771,0-21.333-9.573-21.333-21.333v-320c0-11.76,9.563-21.333,21.333-21.333H256V64
				c0,23.531,19.146,42.667,42.667,42.667h42.667v192h-80C246.625,298.667,234.667,310.625,234.667,325.333z M384,490.667h-85.333
				v-64H384V490.667z M426.667,485.333c0,2.938-2.396,5.333-5.333,5.333h-16V416c0-5.896-4.771-10.667-10.667-10.667H288
				c-5.896,0-10.667,4.771-10.667,10.667v74.667h-16c-2.938,0-5.333-2.396-5.333-5.333v-160c0-2.938,2.396-5.333,5.333-5.333h16
				v37.688c0,14.708,11.958,26.667,26.667,26.667h74.667c14.708,0,26.667-11.958,26.667-26.667V329.75l21.333,21.333V485.333z"/>
		</g>
	</g>
</g>
<g>
</g>
<g>
</g>
<g>
</g>
<g>
</g>
<g>
</g>
<g>
</g>
<g>
</g>
<g>
</g>
<g>
</g>
<g>
</g>
<g>
</g>
<g>
</g>
<g>
</g>
<g>
</g>
<g>
</g>
</svg>
