<?xml version="1.0" encoding="iso-8859-1"?>
<!-- Generator: Adobe Illustrator 19.0.0, SVG Export Plug-In . SVG Version: 6.00 Build 0)  -->
<svg version="1.1" id="Layer_1" xmlns="http://www.w3.org/2000/svg" xmlns:xlink="http://www.w3.org/1999/xlink" x="0px" y="0px"
	 viewBox="0 0 512 512" style="enable-background:new 0 0 512 512;" xml:space="preserve">
<g>
	<g>
		<g>
			<path d="M442.8,324.208c-6.464-5.968-16.624-5.552-22.592,0.976l-76.288,83.152l-28.128-30.672
				c-5.984-6.528-16.128-6.944-22.608-0.976c-6.512,5.984-6.96,16.096-0.992,22.608l39.92,43.504c3.04,3.312,7.328,5.2,11.808,5.2
				c4.48,0,8.768-1.888,11.792-5.184l88.08-96C449.76,340.304,449.328,330.176,442.8,324.208z"/>
			<path d="M384,224.944v-72.272c0-4.128-1.6-8.112-4.464-11.088L248.208,4.912C245.184,1.776,241.024,0,236.672,0H16
				C7.152,0,0,7.168,0,16v480c0,8.832,7.152,16,16,16h352c79.408,0,144-64.608,144-144C512,294.016,455.888,232.928,384,224.944z
				 M240,42.56L337.488,144H240V42.56z M32,480V32h176v128c0,8.832,7.152,16,16,16h128v48.944c-71.888,8-128,69.072-128,143.056
				c0,45.216,20.992,85.584,53.696,112H32z M368,480c-61.744,0-112-50.24-112-112s50.256-112,112-112s112,50.24,112,112
				S429.744,480,368,480z"/>
		</g>
	</g>
</g>
<g>
</g>
<g>
</g>
<g>
</g>
<g>
</g>
<g>
</g>
<g>
</g>
<g>
</g>
<g>
</g>
<g>
</g>
<g>
</g>
<g>
</g>
<g>
</g>
<g>
</g>
<g>
</g>
<g>
</g>
</svg>
