<?xml version="1.0" encoding="iso-8859-1"?>
<!-- Generator: Adobe Illustrator 19.0.0, SVG Export Plug-In . SVG Version: 6.00 Build 0)  -->
<svg version="1.1" id="Layer_1" xmlns="http://www.w3.org/2000/svg" xmlns:xlink="http://www.w3.org/1999/xlink" x="0px" y="0px"
	 viewBox="0 0 512 512" style="enable-background:new 0 0 512 512;" xml:space="preserve">
<g>
	<g>
		<g>
			<path d="M467.54,141.584L336.212,4.912C333.204,1.776,329.028,0,324.676,0H104.004c-8.832,0-16,7.168-16,16v160
				c0,8.832,7.168,16,16,16c8.832,0,16-7.168,16-16V32h176v128c0,8.832,7.168,16,16,16h128v304h-248c-8.832,0-16,7.168-16,16
				c0,8.832,7.168,16,16,16h264c8.832,0,16-7.168,16-16V152.672C472.004,148.544,470.404,144.56,467.54,141.584z M328.004,144V42.56
				L425.492,144H328.004z"/>
			<path d="M255.716,194.848l-59.856-32.864c-3.744-2.048-8.16-2.544-12.272-1.312c-4.096,1.216-7.536,4.032-9.552,7.792
				L44.356,411.312c-1.152,2.176-1.792,4.576-1.872,7.024l-2.48,77.152c-0.192,6.08,3.072,11.728,8.416,14.608
				c2.384,1.264,4.992,1.904,7.584,1.904c3.264,0,6.512-0.992,9.264-2.96l62.336-44.288c2.032-1.424,3.696-3.312,4.864-5.488
				l129.664-242.848C266.26,208.688,263.396,199.072,255.716,194.848z M73.028,464.272l1.184-36.512l28.96,15.104L73.028,464.272z
				 M112.084,429.472l-32.176-16.784l89.552-167.744l32.176,16.784L112.084,429.472z M209.172,247.616l-32.176-16.784l17.632-33.008
				l31.808,17.456L209.172,247.616z"/>
		</g>
	</g>
</g>
<g>
</g>
<g>
</g>
<g>
</g>
<g>
</g>
<g>
</g>
<g>
</g>
<g>
</g>
<g>
</g>
<g>
</g>
<g>
</g>
<g>
</g>
<g>
</g>
<g>
</g>
<g>
</g>
<g>
</g>
</svg>
