<?xml version="1.0" encoding="iso-8859-1"?>
<!-- Generator: Adobe Illustrator 19.0.0, SVG Export Plug-In . SVG Version: 6.00 Build 0)  -->
<svg version="1.1" id="Layer_1" xmlns="http://www.w3.org/2000/svg" xmlns:xlink="http://www.w3.org/1999/xlink" x="0px" y="0px"
	 viewBox="0 0 512 512" style="enable-background:new 0 0 512 512;" xml:space="preserve">
<g>
	<g>
		<g>
			<path d="M467.537,141.584L336.209,4.912C333.201,1.776,329.025,0,324.673,0H104.001c-8.832,0-16,7.168-16,16v160
				c0,8.832,7.168,16,16,16c8.832,0,16-7.168,16-16V32h176v128c0,8.832,7.168,16,16,16h128v304h-248c-8.832,0-16,7.168-16,16
				c0,8.832,7.168,16,16,16h264c8.832,0,16-7.168,16-16V152.672C472.001,148.544,470.401,144.56,467.537,141.584z M328.001,144
				V42.56L425.489,144H328.001z"/>
			<path d="M161.953,268.352c-3.2-8.48-7.744-16.112-13.536-22.704c-5.84-6.672-12.656-11.936-20.24-15.664
				c-7.952-3.92-16.384-5.936-25.056-5.984c-8.944,0.096-17.104,1.856-25.024,5.664c-7.584,3.664-14.352,8.864-20.112,15.488
				c-5.696,6.528-10.176,14.144-13.28,22.624c-3.184,8.704-4.768,17.92-4.704,27.424l1.104,163.248
				c0.048,7.04,1.312,13.92,3.76,20.4c2.384,6.32,5.776,12.016,10.08,16.928c4.368,4.992,9.472,8.944,15.168,11.728
				c6,2.944,12.352,4.448,18.896,4.496c0.096,0,0.176,0,0.256,0c6.464,0,12.736-1.44,18.64-4.272
				c5.68-2.736,10.768-6.656,15.104-11.616c4.272-4.896,7.6-10.576,9.904-16.88c2.352-6.464,3.536-13.328,3.488-20.384
				l-0.432-63.184c0-0.096,0-0.208,0-0.32l-0.56-81.616c-0.016-4.608-0.848-9.104-2.448-13.344
				c-1.552-4.144-3.792-7.888-6.64-11.136c-2.912-3.328-6.32-5.952-10.096-7.808c-4.016-1.984-8.304-2.992-12.72-3.024
				c-4.592,0.128-8.688,0.928-12.752,2.88c-3.808,1.84-7.2,4.448-10.064,7.744c-2.832,3.216-5.024,6.976-6.56,11.136
				c-1.552,4.24-2.32,8.72-2.288,13.36l0.736,108.832c0.032,4.4,3.616,7.952,8,7.952c0.016,0,0.032,0,0.048,0
				c4.416-0.032,7.984-3.632,7.952-8.048L87.841,313.44c-0.016-2.72,0.432-5.328,1.328-7.76c0.848-2.304,2.032-4.352,3.584-6.112
				c1.44-1.664,3.12-2.96,4.944-3.84c1.792-0.864,3.68-1.296,5.616-1.296c1.92-0.272,4,0.464,5.888,1.392
				c1.888,0.928,3.6,2.256,5.104,3.968c1.584,1.792,2.816,3.904,3.696,6.256c0.944,2.464,1.424,5.088,1.44,7.792l0.352,53.456
				c0,0.064,0,0.144,0,0.208l0.624,91.44c0.032,5.152-0.816,10.128-2.528,14.784c-1.632,4.464-3.968,8.448-6.944,11.856
				c-2.896,3.328-6.256,5.92-9.984,7.712c-3.744,1.824-7.04,2.848-11.84,2.704c-4.128-0.032-8.144-0.992-11.952-2.848
				c-3.776-1.856-7.2-4.512-10.176-7.92c-3.04-3.472-5.44-7.52-7.152-12.032c-1.776-4.72-2.704-9.712-2.736-14.864l-1.104-163.248
				c-0.048-7.584,1.2-14.928,3.728-21.824c2.416-6.624,5.888-12.544,10.304-17.6c4.336-4.992,9.392-8.88,15.008-11.584
				c5.696-2.752,11.68-3.84,17.984-4.08c6.24,0.032,12.336,1.488,18.112,4.336c5.68,2.784,10.8,6.768,15.248,11.84
				c4.512,5.152,8.08,11.136,10.592,17.808c2.624,6.96,3.984,14.336,4.032,21.92l0.992,145.104c0.032,4.4,3.616,7.952,8,7.952
				c0.016,0,0.032,0,0.048,0c4.416-0.032,7.984-3.648,7.952-8.048l-0.992-145.12C166.945,286.304,165.233,277.088,161.953,268.352z"
				/>
		</g>
	</g>
</g>
<g>
</g>
<g>
</g>
<g>
</g>
<g>
</g>
<g>
</g>
<g>
</g>
<g>
</g>
<g>
</g>
<g>
</g>
<g>
</g>
<g>
</g>
<g>
</g>
<g>
</g>
<g>
</g>
<g>
</g>
</svg>
