<?xml version="1.0" encoding="iso-8859-1"?>
<!-- Generator: Adobe Illustrator 19.0.0, SVG Export Plug-In . SVG Version: 6.00 Build 0)  -->
<svg version="1.1" id="Layer_1" xmlns="http://www.w3.org/2000/svg" xmlns:xlink="http://www.w3.org/1999/xlink" x="0px" y="0px"
	 viewBox="0 0 512 512" style="enable-background:new 0 0 512 512;" xml:space="preserve">
<g>
	<g>
		<g>
			<path d="M427.312,308.688c-6.256-6.256-16.368-6.256-22.624,0L368,345.376l-36.688-36.688c-6.256-6.256-16.368-6.256-22.624,0
				c-6.256,6.256-6.256,16.368,0,22.624L345.376,368l-36.688,36.688c-6.256,6.256-6.256,16.368,0,22.624
				c3.12,3.12,7.216,4.688,11.312,4.688s8.192-1.568,11.312-4.688L368,390.624l36.688,36.688c3.12,3.12,7.216,4.688,11.312,4.688
				s8.192-1.568,11.312-4.688c6.256-6.256,6.256-16.368,0-22.624L390.624,368l36.688-36.688
				C433.568,325.056,433.568,314.944,427.312,308.688z"/>
			<path d="M384,224.944v-72.272c0-4.128-1.6-8.112-4.464-11.088L248.208,4.912C245.184,1.776,241.024,0,236.672,0H16
				C7.152,0,0,7.168,0,16v480c0,8.832,7.152,16,16,16h352c79.408,0,144-64.608,144-144C512,294.016,455.888,232.928,384,224.944z
				 M240,42.56L337.488,144H240V42.56z M32,480V32h176v128c0,8.832,7.152,16,16,16h128v48.944c-71.888,8-128,69.072-128,143.056
				c0,45.216,20.992,85.584,53.696,112H32z M368,480c-61.744,0-112-50.24-112-112s50.256-112,112-112s112,50.24,112,112
				S429.744,480,368,480z"/>
		</g>
	</g>
</g>
<g>
</g>
<g>
</g>
<g>
</g>
<g>
</g>
<g>
</g>
<g>
</g>
<g>
</g>
<g>
</g>
<g>
</g>
<g>
</g>
<g>
</g>
<g>
</g>
<g>
</g>
<g>
</g>
<g>
</g>
</svg>
