<?xml version="1.0" encoding="iso-8859-1"?>
<!-- Generator: Adobe Illustrator 19.0.0, SVG Export Plug-In . SVG Version: 6.00 Build 0)  -->
<svg version="1.1" id="Layer_1" xmlns="http://www.w3.org/2000/svg" xmlns:xlink="http://www.w3.org/1999/xlink" x="0px" y="0px"
	 viewBox="0 0 512 512" style="enable-background:new 0 0 512 512;" xml:space="preserve">
<g>
	<g>
		<g>
			<path d="M443.536,141.584L312.208,4.912C309.2,1.776,305.024,0,300.672,0H80c-8.832,0-16,7.168-16,16v480c0,8.832,7.168,16,16,16
				h352c8.832,0,16-7.168,16-16V152.672C448,148.544,446.4,144.56,443.536,141.584z M304,42.56L401.488,144H304V42.56z M416,480H96
				V32h176v128c0,8.832,7.168,16,16,16h128V480z"/>
			<path d="M180.928,289.68l-2.672,0.064l-2.688-0.064c-2.192-0.112-4.24,0.688-5.808,2.176c-1.568,1.472-2.464,3.52-2.512,5.68
				l-1.312,61.264c-0.384,12.736-0.752,20.672-1.088,23.872c-0.192,1.92-0.592,3.712-1.152,5.296
				c-0.544,1.488-1.136,2.688-1.776,3.568c-0.032,0.064-1.392,1.36-1.424,1.424c-0.72,0.544-1.648,1.008-2.736,1.344
				c-2.928,0.944-6.528,0.96-10.16,0.272c-2.016-0.384-5.088-1.232-9.216-2.512c-2.592-0.784-5.44-0.24-7.536,1.52
				c-2.08,1.76-3.136,4.448-2.768,7.152c0.24,1.856,0.416,3.744,0.544,5.664c0.224,3.504,2.704,6.464,6.128,7.28
				c3.936,0.944,7.408,1.552,10.416,1.856c3.008,0.304,5.472,0.464,7.408,0.464c4.08,0,7.888-0.512,11.312-1.52
				c2.96-0.88,5.84-2.32,8.56-4.256c2.352-1.68,4.464-3.696,6.256-5.984c1.712-2.192,3.12-4.64,4.128-7.232
				c0.96-2.384,1.696-5.44,2.288-9.424c0.496-3.552,0.96-11.216,1.392-23.44l1.216-34.08c0.4-10.304,0.896-20.96,1.52-31.952
				c0.128-2.256-0.688-4.464-2.288-6.08C185.376,290.448,183.216,289.504,180.928,289.68z"/>
			<path d="M268.816,297.328c-3.264-3.376-7.056-5.584-11.312-6.544c-3.328-0.752-7.328-1.104-12.272-1.104l-14.752,0.08
				l-13.264-0.08c-1.952,0.032-4.176,0.832-5.68,2.336c-1.504,1.504-2.352,3.536-2.352,5.664c0,10.48-0.208,22.512-0.592,36.048
				l-1.248,39.616c-0.448,12.688-0.976,23.504-1.584,32.464c-0.144,2.272,0.672,4.496,2.256,6.128
				c1.504,1.552,3.568,2.416,5.728,2.416c0.112,0,0.224,0,0.336,0l2.784-0.064l2.8,0.064c2.224,0.256,4.32-0.72,5.888-2.24
				c1.584-1.52,2.448-3.632,2.432-5.824l-0.064-8.304c0-3.76,0.288-15.984,0.816-36.688c11.504,1.984,20.88,0.48,29.072-3.824
				c6.16-3.232,11.088-8.112,14.672-14.544c3.472-6.256,5.232-13.408,5.232-21.28c0-4.528-0.72-8.912-2.128-13.024
				C274.064,304.208,271.792,300.416,268.816,297.328z M255.184,330.56c-0.976,2.576-2.256,4.624-3.904,6.24
				c-1.536,1.504-3.376,2.576-5.616,3.232c-4.912,1.456-10.24,1.648-16.368,0.416c0.336-11.632,0.672-21.552,1.008-29.776
				l13.28,0.016c5.984,0,7.904,0.608,8.192,0.704c1.008,0.384,1.776,0.88,2.32,1.488c0.704,0.8,1.312,1.968,1.776,3.424
				c0.576,1.792,0.848,3.616,0.848,5.552C256.72,324.976,256.208,327.824,255.184,330.56z"/>
			<path d="M288.4,379.44c2.432,8,6.336,14.864,11.6,20.352c5.232,5.456,11.568,9.584,18.88,12.288
				c7.04,2.592,14.512,3.92,22.224,3.92c4.352,0,9.408-0.464,15.456-1.408c5.888-0.928,12.544-2.464,19.776-4.56
				c3.344-0.976,5.68-4,5.776-7.488L384,346.832c0.096-2.192-0.704-4.336-2.224-5.92c-1.52-1.584-3.52-2.928-5.824-2.448l-11.6,0.08
				l-17.856-0.08c-2.368,0.4-4.176,1.28-5.68,2.768c-1.504,1.504-2.352,3.984-2.352,6.112c0,1.216-0.048,2.544-0.176,3.936
				c-0.208,2.304,0.608,4.592,2.224,6.256c1.6,1.664,3.664,2.512,6.176,2.416l9.872-0.528c1.936-0.064,3.872-0.096,5.808-0.096
				l-1.152,32.608c-0.384,0.128-0.736,0.24-1.088,0.336c-1.456,0.448-3.344,0.864-5.6,1.312c-2.416,0.464-4.832,0.832-7.232,1.088
				c-8.752,0.944-15.296,0.128-21.344-2.208c-4.352-1.696-7.936-4.032-10.912-7.12c-2.928-3.04-5.088-6.944-6.624-11.936
				c-1.648-5.376-2.48-11.312-2.48-17.632c0-6.768,0.976-13.44,2.88-19.824c1.84-6.08,4.48-11.216,7.856-15.232
				c3.312-3.92,7.232-6.784,11.968-8.736c8.016-3.296,16.48-3.936,26.672-1.856c4.048,0.816,9.056,2.384,14.912,4.688
				c2.656,1.04,5.616,0.608,7.824-1.12c2.224-1.728,3.376-4.496,3.04-7.296c-0.24-1.968-0.4-4.16-0.48-6.608
				c-0.112-3.52-2.512-6.544-5.904-7.456c-6.096-1.664-11.408-2.768-15.936-3.392c-13.184-1.84-25.712-1.056-36.688,3.056
				c-7.424,2.784-14.032,7.28-19.648,13.376c-5.52,6-9.888,13.536-12.96,22.416c-3.008,8.672-4.544,17.952-4.544,27.584
				C284.928,363.76,286.096,371.856,288.4,379.44z"/>
		</g>
	</g>
</g>
<g>
</g>
<g>
</g>
<g>
</g>
<g>
</g>
<g>
</g>
<g>
</g>
<g>
</g>
<g>
</g>
<g>
</g>
<g>
</g>
<g>
</g>
<g>
</g>
<g>
</g>
<g>
</g>
<g>
</g>
</svg>
