<?xml version="1.0" encoding="iso-8859-1"?>
<!-- Generator: Adobe Illustrator 19.0.0, SVG Export Plug-In . SVG Version: 6.00 Build 0)  -->
<svg version="1.1" id="Layer_1" xmlns="http://www.w3.org/2000/svg" xmlns:xlink="http://www.w3.org/1999/xlink" x="0px" y="0px"
	 viewBox="0 0 512 512" style="enable-background:new 0 0 512 512;" xml:space="preserve">
<g>
	<g>
		<g>
			<path d="M265.744,100.784c-3.008-3.056-7.12-4.784-11.408-4.784H73.776c-8.832,0-16,7.168-16,16v384c0,8.832,7.168,16,16,16h288
				c8.832,0,16-7.168,16-16V221.328c0-4.192-1.648-8.224-4.592-11.216L265.744,100.784z M281.776,162.752L326.24,208h-44.464
				V162.752z M345.776,480h-256V128h157.84l2.16,2.192V224c0,8.832,7.168,16,16,16h80V480z"/>
			<rect x="398.432" y="391.104" width="16" height="32"/>
			<path d="M422.224,423.104h16c8.832,0,16-7.168,16-16v-16h-32V423.104z"/>
			<rect x="422.224" y="292.208" width="32" height="32.976"/>
			<rect x="422.224" y="143.84" width="32" height="32.976"/>
			<rect x="422.224" y="242.752" width="32" height="32.976"/>
			<rect x="422.224" y="193.28" width="32" height="32.976"/>
			<rect x="422.224" y="341.664" width="32" height="32.976"/>
			<path d="M448.864,99.408l-11.968-10.64l-21.264,23.904l6.592,5.856v8.832h32v-16C454.224,106.784,452.272,102.432,448.864,99.408
				z"/>
			<rect x="228.416" width="30.672" height="32"/>
			
				<rect x="352.978" y="34.377" transform="matrix(-0.6649 0.7469 -0.7469 -0.6649 651.4479 -192.8275)" width="31.999" height="30.671"/>
			
				<rect x="388.007" y="64.336" transform="matrix(0.7469 0.6649 -0.6649 0.7469 155.4955 -247.8577)" width="30.671" height="31.999"/>
			<rect x="182.4" width="30.672" height="32"/>
			<path d="M335.408,41.28l21.28-23.904L341.712,4.048C338.8,1.44,335.008,0,331.088,0h-10.64v32h4.544L335.408,41.28z"/>
			<rect x="274.448" width="30.672" height="32"/>
			<path d="M167.072,0h-16c-8.832,0-16,7.168-16,16v16h32V0z"/>
			<rect x="135.072" y="48.48" width="32" height="32.896"/>
		</g>
	</g>
</g>
<g>
</g>
<g>
</g>
<g>
</g>
<g>
</g>
<g>
</g>
<g>
</g>
<g>
</g>
<g>
</g>
<g>
</g>
<g>
</g>
<g>
</g>
<g>
</g>
<g>
</g>
<g>
</g>
<g>
</g>
</svg>
