<?xml version="1.0" encoding="iso-8859-1"?>
<!-- Generator: Adobe Illustrator 19.0.0, SVG Export Plug-In . SVG Version: 6.00 Build 0)  -->
<svg version="1.1" id="Layer_1" xmlns="http://www.w3.org/2000/svg" xmlns:xlink="http://www.w3.org/1999/xlink" x="0px" y="0px"
	 viewBox="0 0 512 512" style="enable-background:new 0 0 512 512;" xml:space="preserve">
<g>
	<g>
		<g>
			<path d="M443.536,141.584L312.208,4.928C309.2,1.776,305.024,0,300.672,0H80c-8.832,0-16,7.152-16,16v480c0,8.848,7.168,16,16,16
				h352c8.832,0,16-7.152,16-16V152.672C448,148.528,446.4,144.56,443.536,141.584z M304,42.56L401.488,144H304V42.56z M416,480H96
				V32h176v128c0,8.848,7.168,16,16,16h128V480z"/>
			<path d="M203.28,320.048l-5.6-0.048c-2.768,0.176-5.376,1.264-6.928,3.568c-1.136,1.712-1.984,2.992-3.104,4.528l-16.496,21.2
				l-16.672-25.488c-1.536-2.464-4.352-4.064-7.184-3.744l-2.512,0.048l-2.592-0.048c-3.168-0.256-5.856,1.408-7.344,4.032
				c-1.488,2.608-1.376,5.84,0.288,8.352l22.608,34.224c-14.992,19.792-23.904,31.36-27.92,36.24c-2,2.432-2.4,5.808-1.008,8.624
				c1.392,2.816,4.064,4.448,7.456,4.464l2.656-0.064L141.6,416c2.656-0.064,5.2-1.168,6.752-3.328l21.408-28.144
				c4.368,6.384,7.616,11.2,9.744,14.464c2.992,4.576,5.76,8.976,8.288,13.136c1.504,2.48,4.08,4.032,7.104,3.856h5.296
				c0.08,0,0.176,0,0.256,0c2.896,0,5.568-1.568,6.992-4.112c1.456-2.608,1.328-5.808-0.32-8.32l-16.272-24.512
				c-2.88-4.288-5.456-8.224-7.76-11.76l26.512-34.352c1.872-2.4,2.192-5.664,0.848-8.416
				C209.104,321.776,206.336,320.048,203.28,320.048z"/>
			<path d="M263.104,381.984l-12.496-35.552L243.6,325.6c-1.088-3.424-4.208-5.36-7.904-5.568l-3.44,0.064l-3.408-0.064
				c-3.76,0.112-7.968,3.152-8.272,7.456l-5.088,68.768l-1.216,10.848c-0.256,2.32,0.688,4.608,2.272,6.32
				c1.584,1.712,4.112,2.64,6.336,2.56l1.888-0.048l2.288,0.064c2.08,0.128,4.24-0.736,5.792-2.224
				c1.552-1.504,2.432-3.552,2.464-5.68c0.032-3.536,0.08-6.224,0.16-7.984l2-29.28l14.144,39.84c1.136,3.2,4.16,5.328,7.536,5.328
				c0.08,0,0.176,0,0.272,0l2.784-0.064l2.8,0.064c3.44,0.112,6.304-1.808,7.616-4.832l17.264-39.92L289.2,407.84
				c-0.032,2.208,0.896,4.32,2.464,5.84c1.568,1.552,3.744,2.784,5.952,2.304l2.304-0.048l2.208,0.048l0.224,0.016
				c1.984,0.048,4.336-0.784,5.904-2.336s2.4-3.696,2.336-5.904c-0.224-7.04-0.336-16.64-0.336-28.752
				c0-3.68,0.048-9.328,0.144-16.912l0.544-33.92c0.032-2.192-0.832-4.304-2.4-5.84s-3.648-2.288-5.888-2.288l-3.456,0.064
				l-3.44-0.064c-3.872-0.192-6.512,1.92-7.744,5.088c-1.152,2.976-2.08,5.248-2.672,6.688L263.104,381.984z"/>
			<path d="M332.48,416h0.016l22.736-0.064L375.728,416c0,0,0.016,0,0.032,0c2.112,0,4.144-0.848,5.648-2.336
				c1.504-1.504,2.352-3.552,2.352-5.664c0-0.976,0.064-2.112,0.192-3.376c0.24-2.336-0.576-4.672-2.208-6.352
				c-1.648-1.696-4-2.608-6.288-2.416c-2.912,0.208-5.904,0.336-8.976,0.4c-3.136,0.08-8.864,0.128-17.152,0.128l-3.552-0.032
				l2.784-67.936c0.096-2.256-0.752-4.432-2.352-6.032c-1.6-1.6-3.904-2.608-6.032-2.32l-2.16,0.048l-2.096-0.048
				c-2.16-0.272-4.288,0.656-5.856,2.144c-1.584,1.472-2.496,3.536-2.544,5.696l-1.824,61.008l-1.2,18.576
				c-0.144,2.208,0.64,4.368,2.16,6C328.16,415.088,330.272,416,332.48,416z"/>
		</g>
	</g>
</g>
<g>
</g>
<g>
</g>
<g>
</g>
<g>
</g>
<g>
</g>
<g>
</g>
<g>
</g>
<g>
</g>
<g>
</g>
<g>
</g>
<g>
</g>
<g>
</g>
<g>
</g>
<g>
</g>
<g>
</g>
</svg>
