<?xml version="1.0" encoding="iso-8859-1"?>
<!-- Generator: Adobe Illustrator 19.0.0, SVG Export Plug-In . SVG Version: 6.00 Build 0)  -->
<svg version="1.1" id="Capa_1" xmlns="http://www.w3.org/2000/svg" xmlns:xlink="http://www.w3.org/1999/xlink" x="0px" y="0px"
	 viewBox="0 0 512 512" style="enable-background:new 0 0 512 512;" xml:space="preserve">
<g>
	<g>
		<path d="M466.833,207.3L262.033,2.5c-3.333-3.333-8.733-3.333-12.067,0l-204.8,204.8c-1.6,1.6-2.5,3.771-2.5,6.033v290.133
			c0,4.713,3.821,8.533,8.533,8.533h136.533c4.713,0,8.533-3.821,8.533-8.533v-179.2h119.467v179.2c0,4.713,3.821,8.533,8.533,8.533
			H460.8c4.713,0,8.533-3.821,8.533-8.533V213.333C469.333,211.071,468.433,208.9,466.833,207.3z M452.267,494.933H332.8v-179.2
			c0-4.713-3.821-8.533-8.533-8.533H187.733c-4.713,0-8.533,3.821-8.533,8.533v179.2H59.733V216.867L256,20.6l196.267,196.267
			V494.933z"/>
	</g>
</g>
<g>
</g>
<g>
</g>
<g>
</g>
<g>
</g>
<g>
</g>
<g>
</g>
<g>
</g>
<g>
</g>
<g>
</g>
<g>
</g>
<g>
</g>
<g>
</g>
<g>
</g>
<g>
</g>
<g>
</g>
</svg>
