<?xml version="1.0" encoding="iso-8859-1"?>
<!-- Generator: Adobe Illustrator 19.0.0, SVG Export Plug-In . SVG Version: 6.00 Build 0)  -->
<svg version="1.1" id="Layer_1" xmlns="http://www.w3.org/2000/svg" xmlns:xlink="http://www.w3.org/1999/xlink" x="0px" y="0px"
	 viewBox="0 0 512 512" style="enable-background:new 0 0 512 512;" xml:space="preserve">
<g>
	<g>
		<g>
			<path d="M405.333,102.99V64C428.865,64,448,44.865,448,21.333V10.667C448,4.771,443.229,0,437.333,0H74.667
				C68.771,0,64,4.771,64,10.667v10.667C64,44.865,83.135,64,106.667,64v38.99c0,39.25,16.729,76.823,45.906,103.073L208.052,256
				l-55.479,49.938c-29.177,26.25-45.906,63.823-45.906,103.073V448C83.135,448,64,467.135,64,490.667v10.667
				C64,507.229,68.771,512,74.667,512h362.667c5.896,0,10.667-4.771,10.667-10.667v-10.667C448,467.135,428.865,448,405.333,448
				v-38.99c0-39.25-16.729-76.823-45.906-103.073L303.948,256l55.479-49.938C388.604,179.813,405.333,142.24,405.333,102.99z
				 M85.333,21.333h341.333c0,11.76-9.573,21.333-21.333,21.333H106.667C94.906,42.667,85.333,33.094,85.333,21.333z
				 M426.667,490.667H85.333c0-11.76,9.573-21.333,21.333-21.333h298.667C417.094,469.333,426.667,478.906,426.667,490.667z
				 M181.329,448L256,348.448L330.671,448H181.329z M345.156,190.208l-64.292,57.865c-2.25,2.021-3.531,4.906-3.531,7.927
				s1.281,5.906,3.531,7.927l64.292,57.865C369.844,344.01,384,375.802,384,409.01V448h-26.672l-92.797-123.729
				c-4.021-5.375-13.042-5.375-17.063,0L154.672,448H128v-38.99c0-33.208,14.156-65,38.844-87.219l64.292-57.865
				c2.25-2.021,3.531-4.906,3.531-7.927s-1.281-5.906-3.531-7.927l-64.292-57.865C142.156,167.99,128,136.198,128,102.99V64h256
				v38.99C384,136.198,369.844,167.99,345.156,190.208z"/>
			<path d="M329.521,149.333H182.469c-4.219,0-8.042,2.49-9.75,6.344c-1.708,3.865-0.99,8.365,1.854,11.49l1.667,1.948
				c1.531,1.823,3.083,3.635,4.854,5.219l67.75,61.354c2.031,1.844,4.594,2.76,7.156,2.76s5.125-0.917,7.156-2.76l67.729-61.344
				c1.792-1.604,3.344-3.406,4.865-5.229l1.667-1.948c2.844-3.125,3.563-7.625,1.854-11.49
				C337.563,151.823,333.74,149.333,329.521,149.333z M256,213.385l-47.177-42.719h94.344L256,213.385z"/>
		</g>
	</g>
</g>
<g>
</g>
<g>
</g>
<g>
</g>
<g>
</g>
<g>
</g>
<g>
</g>
<g>
</g>
<g>
</g>
<g>
</g>
<g>
</g>
<g>
</g>
<g>
</g>
<g>
</g>
<g>
</g>
<g>
</g>
</svg>
