<?xml version="1.0" encoding="iso-8859-1"?>
<!-- Generator: Adobe Illustrator 19.0.0, SVG Export Plug-In . SVG Version: 6.00 Build 0)  -->
<svg version="1.1" id="Capa_1" xmlns="http://www.w3.org/2000/svg" xmlns:xlink="http://www.w3.org/1999/xlink" x="0px" y="0px"
	 viewBox="0 0 512 512" style="enable-background:new 0 0 512 512;" xml:space="preserve">
<g>
	<g>
		<path d="M65.402,60.032v333.7c0,33.102,26.93,60.032,60.032,60.032h25.5V512l55.029-24.763L260.992,512v-58.235h185.607V0H125.434
			C92.332,0,65.402,26.93,65.402,60.032z M230.995,465.605l-25.031-11.263l-25.03,11.263v-41.862h50.061V465.605z M416.601,423.766
			H260.993v-30.022H150.934v30.022h-25.5c-16.561,0-30.034-13.473-30.034-30.034c0-16.561,13.474-30.034,30.034-30.034h291.167
			V423.766z M416.601,333.7H125.434c-10.938,0-21.193,2.955-30.034,8.087V60.032c0-16.561,13.474-30.034,30.034-30.034h291.167
			V333.7z"/>
	</g>
</g>
<g>
	<g>
		<path d="M356.027,196.848V166.85h-22.694c-2.051-10.591-6.214-20.438-12.056-29.065l16.059-16.059l-21.212-21.212l-16.059,16.059
			c-8.628-5.843-18.474-10.006-29.065-12.056V81.823h-29.998v22.694c-10.591,2.051-20.438,6.214-29.065,12.056l-16.059-16.059
			l-21.212,21.212l16.059,16.059c-5.843,8.627-10.006,18.474-12.056,29.065h-22.694v29.998h22.694
			c2.05,10.591,6.214,20.438,12.056,29.065l-16.059,16.059l21.212,21.212l16.059-16.059c8.628,5.843,18.474,10.006,29.065,12.056
			v22.694H271v-22.694c10.591-2.051,20.438-6.214,29.065-12.056l16.059,16.059l21.212-21.212l-16.059-16.059
			c5.843-8.628,10.006-18.474,12.056-29.065H356.027z M256,230.633c-26.899,0-48.784-21.885-48.784-48.784
			s21.885-48.784,48.784-48.784c26.899,0,48.784,21.885,48.784,48.784S282.899,230.633,256,230.633z"/>
	</g>
</g>
<g>
</g>
<g>
</g>
<g>
</g>
<g>
</g>
<g>
</g>
<g>
</g>
<g>
</g>
<g>
</g>
<g>
</g>
<g>
</g>
<g>
</g>
<g>
</g>
<g>
</g>
<g>
</g>
<g>
</g>
</svg>
