<?xml version="1.0" encoding="iso-8859-1"?>
<!-- Generator: Adobe Illustrator 19.0.0, SVG Export Plug-In . SVG Version: 6.00 Build 0)  -->
<svg version="1.1" id="Capa_1" xmlns="http://www.w3.org/2000/svg" xmlns:xlink="http://www.w3.org/1999/xlink" x="0px" y="0px"
	 viewBox="0 0 512.026 512.026" style="enable-background:new 0 0 512.026 512.026;" xml:space="preserve">
<g>
	<g>
		<path d="M504.467,79.79L432.142,7.465c-9.679-9.796-26.667-9.75-36.254-0.037L39.621,363.782
			c-0.719,0.719-1.241,1.585-1.661,2.501c-0.103,0.224-0.198,0.436-0.281,0.667c-0.071,0.2-0.188,0.377-0.245,0.582L0.313,501.078
			c-0.825,2.963,0.008,6.138,2.183,8.317c1.625,1.621,3.804,2.5,6.038,2.5c0.758,0,1.525-0.1,2.279-0.308l133.633-37.033
			c0.209-0.058,0.391-0.178,0.594-0.251c0.227-0.081,0.435-0.177,0.656-0.278c0.918-0.422,1.785-0.944,2.504-1.663l298.459-298.529
			c0.063-0.059,0.146-0.077,0.208-0.138c0.061-0.061,0.079-0.145,0.138-0.208l57.424-57.438c4.896-4.833,7.592-11.279,7.596-18.146
			C512.026,91.036,509.33,84.59,504.467,79.79z M20.796,491.107L31.4,452.961l27.568,27.568L20.796,491.107z M77.864,475.291
			l-41.215-41.215l13.312-47.888l75.823,75.823L77.864,475.291z M142.165,454.259l-84.444-84.444L344.287,83.181l84.444,84.444
			L142.165,454.259z M492.401,103.94l-51.604,51.617l-84.444-84.444l51.644-51.656c3.2-3.25,8.758-3.287,12.042,0.037l72.4,72.4
			c1.625,1.604,2.521,3.738,2.521,6.008C494.955,100.17,494.063,102.299,492.401,103.94z"/>
	</g>
</g>
<g>
</g>
<g>
</g>
<g>
</g>
<g>
</g>
<g>
</g>
<g>
</g>
<g>
</g>
<g>
</g>
<g>
</g>
<g>
</g>
<g>
</g>
<g>
</g>
<g>
</g>
<g>
</g>
<g>
</g>
</svg>
