<?xml version="1.0" encoding="iso-8859-1"?>
<!-- Generator: Adobe Illustrator 19.0.0, SVG Export Plug-In . SVG Version: 6.00 Build 0)  -->
<svg version="1.1" id="Capa_1" xmlns="http://www.w3.org/2000/svg" xmlns:xlink="http://www.w3.org/1999/xlink" x="0px" y="0px"
	 viewBox="0 0 368 368" style="enable-background:new 0 0 368 368;" xml:space="preserve">
<g>
	<g>
		<path d="M344,64h-56V8c0-4.424-3.576-8-8-8H88c-4.424,0-8,3.576-8,8v56H24C10.768,64,0,74.768,0,87.992V264
			c0,13.232,10.768,24,24,24h8v56c0,4.424,3.576,8,8,8h40v8c0,4.424,3.576,8,8,8h192c4.424,0,8-3.576,8-8v-8h40c4.424,0,8-3.576,8-8
			v-56h8c13.232,0,24-10.768,24-24V88C368,74.768,357.232,64,344,64z M96,16h176v48H96V16z M80,336H48v-48h32V336z M80,272H24
			c-4.416,0-8-3.584-8-8v-24h64V272z M272,352H96V208h176V352z M320,336h-32v-48h32V336z M352,264c0,4.416-3.584,8-8,8h-56v-32h64
			V264z M352,224h-64v-24c0-4.424-3.576-8-8-8H88c-4.424,0-8,3.576-8,8v24H16V87.992C16,83.584,19.584,80,24,80h320
			c4.416,0,8,3.584,8,8V224z"/>
	</g>
</g>
<g>
	<g>
		<path d="M72,112.504c-13.232,0-24,10.768-24,24s10.768,24,24,24s24-10.768,24-24S85.232,112.504,72,112.504z M72,144.504
			c-4.416,0-8-3.584-8-8c0-4.416,3.584-8,8-8s8,3.584,8,8C80,140.92,76.416,144.504,72,144.504z"/>
	</g>
</g>
<g>
	<g>
		<path d="M232,240h-96c-4.424,0-8,3.576-8,8s3.576,8,8,8h96c4.424,0,8-3.576,8-8S236.424,240,232,240z"/>
	</g>
</g>
<g>
	<g>
		<path d="M232,288h-96c-4.424,0-8,3.576-8,8s3.576,8,8,8h96c4.424,0,8-3.576,8-8S236.424,288,232,288z"/>
	</g>
</g>
<g>
</g>
<g>
</g>
<g>
</g>
<g>
</g>
<g>
</g>
<g>
</g>
<g>
</g>
<g>
</g>
<g>
</g>
<g>
</g>
<g>
</g>
<g>
</g>
<g>
</g>
<g>
</g>
<g>
</g>
</svg>
