<?xml version="1.0" encoding="iso-8859-1"?>
<!-- Generator: Adobe Illustrator 19.0.0, SVG Export Plug-In . SVG Version: 6.00 Build 0)  -->
<svg version="1.1" id="Capa_1" xmlns="http://www.w3.org/2000/svg" xmlns:xlink="http://www.w3.org/1999/xlink" x="0px" y="0px"
	 viewBox="0 0 368 368" style="enable-background:new 0 0 368 368;" xml:space="preserve">
<g>
	<g>
		<path d="M365.656,66.344l-63.992-64C300.168,0.84,298.136,0,296.008,0H24C10.768,0,0,10.768,0,24v320c0,13.232,10.768,24,24,24
			h320c13.232,0,24-10.768,24-24V72C368,69.88,367.16,67.84,365.656,66.344z M192,16h32v64h-32V16z M96,16h80v72
			c0,4.416,3.576,8,8,8h48c4.424,0,8-3.584,8-8V16h32v112H96V16z M288,352H80V192h208V352z M352,344c0,4.408-3.584,8-8,8h-40V184
			c0-4.416-3.576-8-8-8H72c-4.424,0-8,3.584-8,8v168H24c-4.416,0-8-3.592-8-8V24c0-4.408,3.584-8,8-8h56v120c0,4.416,3.576,8,8,8
			h192c4.424,0,8-3.584,8-8V16h4.696L352,75.312V344z"/>
	</g>
</g>
<g>
</g>
<g>
</g>
<g>
</g>
<g>
</g>
<g>
</g>
<g>
</g>
<g>
</g>
<g>
</g>
<g>
</g>
<g>
</g>
<g>
</g>
<g>
</g>
<g>
</g>
<g>
</g>
<g>
</g>
</svg>
