<?xml version="1.0" encoding="iso-8859-1"?>
<!-- Generator: Adobe Illustrator 19.0.0, SVG Export Plug-In . SVG Version: 6.00 Build 0)  -->
<svg version="1.1" id="Capa_1" xmlns="http://www.w3.org/2000/svg" xmlns:xlink="http://www.w3.org/1999/xlink" x="0px" y="0px"
	 viewBox="0 0 512 512" style="enable-background:new 0 0 512 512;" xml:space="preserve">
<g>
	<g>
		<path d="M509.5,497.433L370,357.938c35.143-38.046,56.667-88.849,56.667-144.604C426.667,95.7,330.967,0,213.333,0
			S0,95.7,0,213.333s95.7,213.333,213.333,213.333c55.753,0,106.555-21.522,144.6-56.663l139.5,139.496
			c1.667,1.667,3.85,2.5,6.033,2.5c2.183,0,4.367-0.833,6.033-2.5C512.833,506.167,512.833,500.767,509.5,497.433z M213.333,409.6
			c-108.225,0-196.267-88.046-196.267-196.267S105.108,17.067,213.333,17.067S409.6,105.113,409.6,213.333
			S321.558,409.6,213.333,409.6z"/>
	</g>
</g>
<g>
</g>
<g>
</g>
<g>
</g>
<g>
</g>
<g>
</g>
<g>
</g>
<g>
</g>
<g>
</g>
<g>
</g>
<g>
</g>
<g>
</g>
<g>
</g>
<g>
</g>
<g>
</g>
<g>
</g>
</svg>
