<?xml version="1.0" encoding="iso-8859-1"?>
<!-- Generator: Adobe Illustrator 19.0.0, SVG Export Plug-In . SVG Version: 6.00 Build 0)  -->
<svg version="1.1" id="Layer_1" xmlns="http://www.w3.org/2000/svg" xmlns:xlink="http://www.w3.org/1999/xlink" x="0px" y="0px"
	 viewBox="0 0 512 512" style="enable-background:new 0 0 512 512;" xml:space="preserve">
<g>
	<g>
		<path d="M358.042,257.632c-2.75-2.771-6.854-3.823-10.604-2.677c-2.375,0.708-4.313,1.042-6.104,1.042
			c-2.409,0-4.633-0.637-6.793-1.375c15.891-12.52,36.398-19.667,59.647-19.667c0.146,0,0.313,0,0.479,0
			c64.708,0,117.333-52.635,117.333-117.333c0-18.813-4.771-37.292-14.188-54.937c-1.771-3.313-5.146-5.448-8.896-5.635
			c-3.792-0.115-7.313,1.625-9.396,4.74l-30.563,45.844c-4.167,6.25-11.146,9.99-18.667,9.99h-5.271
			c-20.542,0-38.729-12.323-46.354-31.396c-2.583-6.458-2-13.885,1.583-19.865l29.604-49.313c1.917-3.198,1.146-7.281-0.604-10.583
			c-1.729-3.302-5.958-5.552-9.688-5.76c-1.625-0.229-3.229-0.417-4.896-0.417c-64.708,0-117.333,52.635-117.333,117.76
			c0.063,26.698-10.313,51.802-29.188,70.677l-6.167,6.167L128,80.913V65.705c0-11.448-6.167-22.094-16.125-27.781L47.958,1.403
			c-4.125-2.375-9.396-1.677-12.833,1.719l-32,32c-3.396,3.396-4.104,8.656-1.729,12.833l36.542,63.937
			c5.688,9.927,16.333,16.104,27.771,16.104h15.208l113.979,113.979L15.625,421.236C5.542,431.309,0,444.705,0,458.955
			c0,15.604,6.833,30.396,18.729,40.573c9.563,8.177,21.521,12.198,33.688,12.198c14.521,0,29.313-5.74,40.542-16.979
			l161.421-161.43c1.012,2.482,1.621,5.172,1.621,8.013c0,1.833-0.333,3.75-1.021,6.031c-1.167,3.781-0.146,7.885,2.646,10.677
			l135.75,135.75c11.75,11.74,27.375,18.208,43.958,18.208c16.583,0,32.208-6.469,43.958-18.208l12.5-12.5
			C505.542,469.559,512,453.944,512,437.33c0-16.615-6.458-32.229-18.208-43.958L358.042,257.632z M298.667,117.621
			c0-47.948,35.333-87.802,82.792-94.729l-19.5,32.5c-7,11.677-8.146,26.167-3.104,38.76c10.875,27.219,36.854,44.802,66.167,44.802
			h5.271c14.667,0,28.271-7.281,36.417-19.49l19.625-29.427c2.875,9.073,4.333,18.292,4.333,27.583c0,52.938-43.063,96-96.375,96
			c-0.188,0-0.375,0-0.563,0c-27.993,0-53.236,9.02-72.964,24.824c-0.238-1.273-0.766-2.441-0.766-3.783
			c0-1.771,0.333-3.719,1.063-6.125c1.104-3.75,0.083-7.823-2.688-10.594l-15.292-15.281c-8.115-8.115-19.785-11.311-30.826-9.848
			C289.12,171.486,298.72,145.547,298.667,117.621z M92.875,109.788c-2-2-4.708-3.125-7.542-3.125H65.708
			c-3.813,0-7.354-2.063-9.25-5.375L23.979,44.444l20.479-20.479l56.833,32.479c3.313,1.896,5.375,5.448,5.375,9.26V85.33
			c0,2.833,1.125,5.542,3.125,7.542l125.79,125.79l-16.919,16.914L92.875,109.788z M77.875,479.663
			c-12.604,12.594-32.896,14.25-45.271,3.656c-7.167-6.125-11.271-15-11.271-24.365c0-8.552,3.333-16.583,9.375-22.625
			l161.54-161.54c-0.059,0.853-0.249,1.677-0.249,2.54c0,9.729,3.792,18.875,10.667,25.75l15.292,15.281
			c2.792,2.781,6.875,3.802,10.604,2.677c2.375-0.708,4.313-1.042,6.104-1.042c0.845,0,1.564,0.385,2.383,0.482L77.875,479.663z
			 M478.708,466.205l-12.5,12.5c-15.458,15.417-42.292,15.417-57.75,0L276.875,347.121c0.313-1.958,0.458-3.885,0.458-5.792
			c0-25.438-22-46.469-48.458-42.208l-11.125-11.125c-2.854-2.854-4.417-6.635-4.417-10.667s1.563-7.823,4.417-10.667l48.917-48.917
			c5.708-5.688,15.625-5.688,21.333,0l11.125,11.115c-0.313,1.979-0.458,3.885-0.458,5.802c0,25.427,21.875,46.375,48.458,42.208
			l131.583,131.583c7.708,7.708,11.958,17.958,11.958,28.875C490.667,448.246,486.417,458.496,478.708,466.205z"/>
	</g>
</g>
<g>
</g>
<g>
</g>
<g>
</g>
<g>
</g>
<g>
</g>
<g>
</g>
<g>
</g>
<g>
</g>
<g>
</g>
<g>
</g>
<g>
</g>
<g>
</g>
<g>
</g>
<g>
</g>
<g>
</g>
</svg>
