<?xml version="1.0" encoding="iso-8859-1"?>
<!-- Generator: Adobe Illustrator 19.0.0, SVG Export Plug-In . SVG Version: 6.00 Build 0)  -->
<svg version="1.1" id="Capa_1" xmlns="http://www.w3.org/2000/svg" xmlns:xlink="http://www.w3.org/1999/xlink" x="0px" y="0px"
	 viewBox="0 0 512 512" style="enable-background:new 0 0 512 512;" xml:space="preserve">
<g>
	<g>
		<g>
			<path d="M496.692,204.054l-53.012-5.483c-3.658-11.958-8.475-23.575-14.375-34.654l33.621-41.379
				c5.533-6.813,5.025-16.625-1.179-22.829l-49.454-49.454c-5.988-5.992-16.258-6.517-22.829-1.179l-41.379,33.621
				c-11.079-5.9-22.696-10.717-34.654-14.375l-5.483-53.013C307.042,6.583,299.746,0,290.971,0h-69.942
				c-8.775,0-16.071,6.583-16.975,15.308l-5.483,53.013c-11.958,3.658-23.575,8.475-34.654,14.375l-41.379-33.621
				c-6.567-5.333-16.837-4.808-22.829,1.179L50.254,99.708c-6.2,6.2-6.712,16.013-1.179,22.833l33.621,41.375
				c-5.9,11.079-10.717,22.696-14.375,34.654l-53.013,5.483C6.583,204.958,0,212.254,0,221.029v69.942
				c0,8.775,6.583,16.071,15.308,16.975l53.013,5.483c3.658,11.958,8.475,23.575,14.375,34.654l-33.629,41.383
				c-5.525,6.813-5.012,16.625,1.188,22.825l49.454,49.454c5.988,5.983,16.233,6.529,22.833,1.179l41.375-33.621
				c11.079,5.9,22.696,10.717,34.654,14.375l5.483,53.013c0.904,8.725,8.2,15.308,16.975,15.308h69.942
				c8.775,0,16.071-6.583,16.975-15.308l5.483-53.012c11.958-3.658,23.575-8.475,34.654-14.375l41.383,33.629
				c3.033,2.458,6.85,3.813,10.754,3.813c4.563,0,8.846-1.775,12.071-5l49.454-49.454c6.204-6.204,6.713-16.017,1.179-22.829
				l-33.621-41.379c5.9-11.079,10.717-22.696,14.375-34.654l53.013-5.483c8.725-0.904,15.308-8.2,15.308-16.975v-69.942
				C512,212.254,505.417,204.958,496.692,204.054z M494.933,290.971l-58.733,6.075c-3.504,0.362-6.425,2.842-7.354,6.242
				c-3.942,14.45-9.729,28.404-17.2,41.479c-1.75,3.058-1.438,6.879,0.788,9.612l37.246,45.846l-49.454,49.458l-45.842-37.25
				c-2.737-2.233-6.562-2.533-9.617-0.788c-13.075,7.471-27.029,13.258-41.479,17.2c-3.4,0.929-5.879,3.85-6.242,7.354
				l-6.067,58.733h-69.95l-6.075-58.733c-0.362-3.504-2.842-6.425-6.242-7.354c-14.45-3.942-28.404-9.729-41.479-17.2
				c-1.317-0.754-2.779-1.125-4.233-1.125c-1.917,0-3.825,0.646-5.383,1.912l-45.842,37.246l-49.458-49.454l37.25-45.842
				c2.225-2.737,2.537-6.558,0.788-9.617c-7.471-13.075-13.258-27.029-17.2-41.479c-0.929-3.4-3.85-5.879-7.354-6.242l-58.733-6.075
				v-69.942l58.733-6.075c3.504-0.362,6.425-2.842,7.354-6.242c3.942-14.45,9.729-28.404,17.2-41.479
				c1.75-3.058,1.438-6.879-0.788-9.617l-37.246-45.842l49.458-49.454l45.842,37.246c2.737,2.233,6.562,2.533,9.612,0.788
				c13.075-7.471,27.029-13.258,41.479-17.2c3.4-0.929,5.879-3.85,6.242-7.354l6.075-58.733h69.942l6.075,58.733
				c0.362,3.504,2.842,6.425,6.242,7.354c14.45,3.942,28.404,9.729,41.479,17.2c3.05,1.742,6.879,1.438,9.612-0.788l45.846-37.246
				l49.454,49.458l-37.246,45.842c-2.225,2.733-2.537,6.554-0.788,9.612c7.471,13.075,13.258,27.029,17.2,41.479
				c0.929,3.4,3.85,5.879,7.354,6.242l58.733,6.075V290.971z"/>
			<path d="M256,153.6c-56.462,0-102.4,45.938-102.4,102.4c0,56.463,45.938,102.4,102.4,102.4c56.463,0,102.4-45.938,102.4-102.4
				C358.4,199.538,312.463,153.6,256,153.6z M256,341.333c-47.054,0-85.333-38.279-85.333-85.333
				c0-47.054,38.279-85.333,85.333-85.333c47.054,0,85.333,38.279,85.333,85.333C341.333,303.054,303.054,341.333,256,341.333z"/>
		</g>
	</g>
</g>
<g>
</g>
<g>
</g>
<g>
</g>
<g>
</g>
<g>
</g>
<g>
</g>
<g>
</g>
<g>
</g>
<g>
</g>
<g>
</g>
<g>
</g>
<g>
</g>
<g>
</g>
<g>
</g>
<g>
</g>
</svg>
