<?xml version="1.0" encoding="iso-8859-1"?>
<!-- Generator: Adobe Illustrator 19.0.0, SVG Export Plug-In . SVG Version: 6.00 Build 0)  -->
<svg version="1.1" id="Layer_1" xmlns="http://www.w3.org/2000/svg" xmlns:xlink="http://www.w3.org/1999/xlink" x="0px" y="0px"
	 viewBox="0 0 512 512" style="enable-background:new 0 0 512 512;" xml:space="preserve">
<g>
	<g>
		<g>
			<path d="M503.917,196.594l-46.833-11.719c-2.469-6.906-5.365-13.823-8.656-20.688l24.885-41.479
				c2.521-4.198,1.854-9.573-1.604-13.031l-69.385-69.396c-3.458-3.469-8.854-4.115-13.031-1.604l-41.49,24.896
				c-6.854-3.292-13.771-6.188-20.677-8.656L315.406,8.083C314.219,3.333,309.958,0,305.063,0h-98.125
				c-4.896,0-9.156,3.333-10.344,8.083l-11.719,46.833c-6.906,2.469-13.823,5.365-20.677,8.656l-41.49-24.896
				c-4.198-2.5-9.573-1.865-13.031,1.604l-69.385,69.396c-3.458,3.458-4.125,8.833-1.604,13.031l24.885,41.479
				c-3.292,6.865-6.188,13.781-8.656,20.688L8.083,196.594C3.333,197.781,0,202.042,0,206.938v98.125
				c0,4.896,3.333,9.156,8.083,10.344l46.833,11.719c2.469,6.906,5.365,13.823,8.656,20.688l-24.885,41.479
				c-2.521,4.198-1.854,9.573,1.604,13.031l69.385,69.385c3.438,3.448,8.823,4.104,13.031,1.604l41.479-24.885
				c6.865,3.292,13.781,6.188,20.688,8.656l11.719,46.833c1.188,4.75,5.448,8.083,10.344,8.083h98.125
				c4.896,0,9.156-3.333,10.344-8.083l11.719-46.833c6.906-2.469,13.823-5.365,20.688-8.656l41.479,24.885
				c4.198,2.51,9.573,1.865,13.031-1.604l69.385-69.385c3.458-3.458,4.125-8.833,1.604-13.031l-24.885-41.479
				c3.292-6.865,6.188-13.781,8.656-20.688l46.833-11.719c4.75-1.188,8.083-5.448,8.083-10.344v-98.125
				C512,202.042,508.667,197.781,503.917,196.594z M490.667,296.74l-44.396,11.104c-3.573,0.885-6.438,3.563-7.563,7.063
				c-3.063,9.479-7.073,19.073-11.917,28.521c-1.688,3.271-1.552,7.188,0.344,10.354l23.604,39.344l-57.615,57.615l-39.333-23.604
				c-3.156-1.875-7.052-2.021-10.354-0.344c-9.458,4.844-19.052,8.854-28.531,11.917c-3.5,1.125-6.177,3.99-7.063,7.563
				l-11.104,44.396H215.26l-11.104-44.396c-0.885-3.573-3.563-6.438-7.063-7.563c-9.479-3.063-19.073-7.073-28.531-11.917
				c-3.292-1.698-7.208-1.552-10.354,0.344l-39.333,23.604L61.26,393.125l23.604-39.344c1.896-3.167,2.031-7.083,0.344-10.354
				c-4.844-9.448-8.854-19.042-11.917-28.521c-1.125-3.5-3.99-6.177-7.563-7.063L21.333,296.74V215.26l44.396-11.104
				c3.573-0.885,6.438-3.563,7.563-7.063c3.063-9.479,7.073-19.073,11.917-28.521c1.688-3.271,1.552-7.188-0.344-10.354
				L61.26,118.875l57.615-57.625l39.344,23.615c3.167,1.906,7.083,2.052,10.354,0.344c9.448-4.844,19.042-8.854,28.521-11.917
				c3.5-1.125,6.177-3.99,7.063-7.563l11.104-44.396h81.479l11.104,44.396c0.885,3.573,3.563,6.438,7.063,7.563
				c9.479,3.063,19.073,7.073,28.521,11.917c3.26,1.688,7.188,1.542,10.354-0.344l39.344-23.615l57.615,57.625l-23.604,39.344
				c-1.896,3.167-2.031,7.083-0.344,10.354c4.844,9.448,8.854,19.042,11.917,28.521c1.125,3.5,3.99,6.177,7.563,7.063l44.396,11.104
				V296.74z"/>
			<path d="M256,128c-70.583,0-128,57.417-128,128s57.417,128,128,128s128-57.417,128-128S326.583,128,256,128z M256,362.667
				c-58.813,0-106.667-47.854-106.667-106.667S197.188,149.333,256,149.333S362.667,197.188,362.667,256
				S314.813,362.667,256,362.667z"/>
		</g>
	</g>
</g>
<g>
</g>
<g>
</g>
<g>
</g>
<g>
</g>
<g>
</g>
<g>
</g>
<g>
</g>
<g>
</g>
<g>
</g>
<g>
</g>
<g>
</g>
<g>
</g>
<g>
</g>
<g>
</g>
<g>
</g>
</svg>
