<?xml version="1.0" encoding="iso-8859-1"?>
<!-- Generator: Adobe Illustrator 19.0.0, SVG Export Plug-In . SVG Version: 6.00 Build 0)  -->
<svg version="1.1" id="Layer_1" xmlns="http://www.w3.org/2000/svg" xmlns:xlink="http://www.w3.org/1999/xlink" x="0px" y="0px"
	 viewBox="0 0 512 512" style="enable-background:new 0 0 512 512;" xml:space="preserve">
<g>
	<g>
		<g>
			<path d="M298.667,246.538V64c0-23.531-19.135-42.667-42.667-42.667S213.333,40.469,213.333,64v182.538
				c-25.381,14.803-42.667,42.021-42.667,73.462s17.285,58.659,42.667,73.462V448c0,23.531,19.135,42.667,42.667,42.667
				s42.667-19.135,42.667-42.667v-54.538c25.381-14.803,42.667-42.021,42.667-73.462S324.048,261.341,298.667,246.538z M234.667,64
				c0-11.76,9.573-21.333,21.333-21.333S277.333,52.24,277.333,64v173.697c-6.859-1.783-13.924-3.03-21.333-3.03
				s-14.474,1.247-21.333,3.03V64z M277.333,448c0,11.76-9.573,21.333-21.333,21.333S234.667,459.76,234.667,448v-45.697
				c6.859,1.783,13.924,3.03,21.333,3.03s14.474-1.247,21.333-3.03V448z M256,384c-35.292,0-64-28.708-64-64s28.708-64,64-64
				s64,28.708,64,64S291.292,384,256,384z"/>
			<path d="M128,75.871V64c0-23.531-19.135-42.667-42.667-42.667S42.667,40.469,42.667,64v11.871C17.285,90.674,0,117.892,0,149.333
				s17.285,58.659,42.667,73.462V448c0,23.531,19.135,42.667,42.667,42.667S128,471.531,128,448V222.796
				c25.382-14.803,42.667-42.021,42.667-73.462S153.382,90.674,128,75.871z M64,64c0-11.76,9.573-21.333,21.333-21.333
				c11.76,0,21.333,9.573,21.333,21.333v3.03C99.807,65.247,92.742,64,85.333,64C77.924,64,70.859,65.247,64,67.03V64z M106.667,448
				c0,11.76-9.573,21.333-21.333,21.333C73.573,469.333,64,459.76,64,448V231.637c6.859,1.783,13.924,3.03,21.333,3.03
				c7.409,0,14.474-1.247,21.333-3.03V448z M85.333,213.333c-35.292,0-64-28.708-64-64c0-35.292,28.708-64,64-64
				c35.292,0,64,28.708,64,64C149.333,184.625,120.625,213.333,85.333,213.333z"/>
			<path d="M469.333,118.538V64c0-23.531-19.135-42.667-42.667-42.667S384,40.469,384,64v54.538
				c-25.381,14.803-42.667,42.021-42.667,73.462s17.285,58.659,42.667,73.462V448c0,23.531,19.135,42.667,42.667,42.667
				s42.667-19.135,42.667-42.667V265.462C494.715,250.659,512,223.441,512,192S494.715,133.341,469.333,118.538z M405.333,64
				c0-11.76,9.573-21.333,21.333-21.333S448,52.24,448,64v45.697c-6.859-1.783-13.924-3.03-21.333-3.03s-14.474,1.247-21.333,3.03
				V64z M448,448c0,11.76-9.573,21.333-21.333,21.333S405.333,459.76,405.333,448V274.303c6.859,1.783,13.924,3.03,21.333,3.03
				s14.474-1.247,21.333-3.03V448z M426.667,256c-35.292,0-64-28.708-64-64s28.708-64,64-64s64,28.708,64,64
				S461.958,256,426.667,256z"/>
		</g>
	</g>
</g>
<g>
</g>
<g>
</g>
<g>
</g>
<g>
</g>
<g>
</g>
<g>
</g>
<g>
</g>
<g>
</g>
<g>
</g>
<g>
</g>
<g>
</g>
<g>
</g>
<g>
</g>
<g>
</g>
<g>
</g>
</svg>
