<?xml version="1.0" encoding="iso-8859-1"?>
<!-- Generator: Adobe Illustrator 19.0.0, SVG Export Plug-In . SVG Version: 6.00 Build 0)  -->
<svg version="1.1" id="Capa_1" xmlns="http://www.w3.org/2000/svg" xmlns:xlink="http://www.w3.org/1999/xlink" x="0px" y="0px"
	 viewBox="0 0 512 512" style="enable-background:new 0 0 512 512;" xml:space="preserve">
<g>
	<g>
		<g>
			<path d="M460.8,51.2H307.2V17.067C307.2,7.654,299.546,0,290.133,0h-68.267C212.454,0,204.8,7.654,204.8,17.067V51.2H51.2
				c-9.413,0-17.067,7.654-17.067,17.067v42.667c0,9.413,7.654,17.067,17.067,17.067h17.067v341.333
				c0,23.525,19.142,42.667,42.667,42.667h290.133c23.525,0,42.667-19.142,42.667-42.667V128H460.8
				c9.413,0,17.067-7.654,17.067-17.067V68.267C477.867,58.854,470.213,51.2,460.8,51.2z M221.867,17.067h68.267v33.067h-68.267
				V17.067z M426.667,469.333c0,14.117-11.483,25.6-25.6,25.6H110.933c-14.117,0-25.6-11.483-25.6-25.6V128h341.333V469.333z
				 M435.2,110.933H76.8H51.2V68.267h409.6l0.012,42.667H435.2z"/>
			<path d="M256,426.667c4.713,0,8.533-3.821,8.533-8.533V196.267c0-4.713-3.821-8.533-8.533-8.533s-8.533,3.821-8.533,8.533
				v221.867C247.467,422.846,251.287,426.667,256,426.667z"/>
			<path d="M170.667,426.667c4.713,0,8.533-3.821,8.533-8.533V196.267c0-4.713-3.821-8.533-8.533-8.533s-8.533,3.821-8.533,8.533
				v221.867C162.133,422.846,165.954,426.667,170.667,426.667z"/>
			<path d="M341.333,426.667c4.713,0,8.533-3.821,8.533-8.533V196.267c0-4.713-3.821-8.533-8.533-8.533
				c-4.713,0-8.533,3.821-8.533,8.533v221.867C332.8,422.846,336.621,426.667,341.333,426.667z"/>
		</g>
	</g>
</g>
<g>
</g>
<g>
</g>
<g>
</g>
<g>
</g>
<g>
</g>
<g>
</g>
<g>
</g>
<g>
</g>
<g>
</g>
<g>
</g>
<g>
</g>
<g>
</g>
<g>
</g>
<g>
</g>
<g>
</g>
</svg>
