<?xml version="1.0" encoding="iso-8859-1"?>
<!-- Generator: Adobe Illustrator 19.0.0, SVG Export Plug-In . SVG Version: 6.00 Build 0)  -->
<svg version="1.1" id="Capa_1" xmlns="http://www.w3.org/2000/svg" xmlns:xlink="http://www.w3.org/1999/xlink" x="0px" y="0px"
	 viewBox="0 0 512 512" style="enable-background:new 0 0 512 512;" xml:space="preserve">
<g>
	<g>
		<g>
			<path d="M256,0C114.842,0,0,114.842,0,256s114.842,256,256,256s256-114.842,256-256S397.158,0,256,0z M256,494.933
				C124.25,494.933,17.067,387.75,17.067,256S124.25,17.067,256,17.067S494.933,124.25,494.933,256S387.75,494.933,256,494.933z"/>
			<path d="M262.041,130.507c-0.788-0.79-1.733-1.416-2.78-1.849c-2.085-0.862-4.435-0.862-6.521,0
				c-1.047,0.433-1.992,1.059-2.78,1.849L147.567,232.9c-3.333,3.333-3.333,8.733,0,12.067s8.733,3.333,12.067,0l87.833-87.833
				v218.333c0,4.713,3.817,8.533,8.533,8.533c4.717,0,8.533-3.821,8.533-8.533V157.133l87.833,87.833
				c1.667,1.667,3.85,2.5,6.033,2.5s4.367-0.833,6.033-2.5c3.333-3.333,3.333-8.733,0-12.067L262.041,130.507z"/>
		</g>
	</g>
</g>
<g>
</g>
<g>
</g>
<g>
</g>
<g>
</g>
<g>
</g>
<g>
</g>
<g>
</g>
<g>
</g>
<g>
</g>
<g>
</g>
<g>
</g>
<g>
</g>
<g>
</g>
<g>
</g>
<g>
</g>
</svg>
