<?xml version="1.0" encoding="iso-8859-1"?>
<!-- Generator: Adobe Illustrator 19.0.0, SVG Export Plug-In . SVG Version: 6.00 Build 0)  -->
<svg version="1.1" id="Capa_1" xmlns="http://www.w3.org/2000/svg" xmlns:xlink="http://www.w3.org/1999/xlink" x="0px" y="0px"
	 viewBox="0 0 512 512" style="enable-background:new 0 0 512 512;" xml:space="preserve">
<g>
	<g>
		<g>
			<path d="M509.5,497.433L370.002,357.935c35.142-38.045,56.665-88.849,56.665-144.602C426.667,95.7,330.967,0,213.333,0
				S0,95.7,0,213.333s95.7,213.333,213.333,213.333c55.754,0,106.557-21.522,144.602-56.665L497.433,509.5
				c1.667,1.667,3.85,2.5,6.033,2.5c2.183,0,4.367-0.833,6.033-2.5C512.833,506.167,512.833,500.767,509.5,497.433z M213.333,409.6
				c-108.221,0-196.267-88.046-196.267-196.267S105.112,17.067,213.333,17.067S409.6,105.113,409.6,213.333
				S321.554,409.6,213.333,409.6z"/>
			<path d="M307.2,204.8H119.467c-4.713,0-8.533,3.821-8.533,8.533c0,4.713,3.821,8.533,8.533,8.533H307.2
				c4.713,0,8.533-3.821,8.533-8.533C315.733,208.621,311.913,204.8,307.2,204.8z"/>
		</g>
	</g>
</g>
<g>
</g>
<g>
</g>
<g>
</g>
<g>
</g>
<g>
</g>
<g>
</g>
<g>
</g>
<g>
</g>
<g>
</g>
<g>
</g>
<g>
</g>
<g>
</g>
<g>
</g>
<g>
</g>
<g>
</g>
</svg>
